<svg width="37" height="39" viewBox="0 0 37 39" fill="none" xmlns="http://www.w3.org/2000/svg">
<path d="M18.5 0C8.28024 0 0 8.5332 0 19.0652C0 29.5971 8.28024 38.1303 18.5 38.1303C28.7198 38.1303 37 29.5971 37 19.0652C37 8.5332 28.7198 0 18.5 0ZM27.5859 13.0612L24.5498 27.8059C24.326 28.8514 23.7218 29.1051 22.8788 28.6131L18.2538 25.0999L16.0234 27.3139C15.7772 27.5676 15.5683 27.7829 15.0909 27.7829L15.4192 22.932L23.9903 14.9523C24.3633 14.6141 23.9083 14.4219 23.4159 14.7601L12.8232 21.6328L8.25786 20.1645C7.26573 19.8416 7.24335 19.142 8.46673 18.65L26.3028 11.5621C27.1308 11.2546 27.8544 11.7697 27.5859 13.0612V13.0612Z" fill="#D7AA26" fill-opacity="0.86"/>
</svg>
