<svg width="43" height="13" viewBox="0 0 43 13" fill="none" xmlns="http://www.w3.org/2000/svg">
<mask id="path-1-inside-1_125_229" fill="white">
<path d="M0.279836 10.1371V5.14161H6.25482V4.84941H0.279836V0.292113H6.63258V0H0V10.4292H6.68852V10.1371H0.279836ZM12.0759 2.92131L9.59916 6.32471L7.17831 2.92139H6.81449L9.43119 6.54388L6.56254 10.4291H6.89839L9.59899 6.76279L12.3136 10.4291H12.6634L9.7809 6.5437L12.4115 2.92122L12.0759 2.92131ZM13.5031 13V8.32593H13.5311C13.699 9.00755 14.0302 9.55531 14.5246 9.96919C15.019 10.383 15.6486 10.59 16.4136 10.59C16.908 10.59 17.3465 10.4853 17.7289 10.2759C18.1114 10.0666 18.4309 9.78176 18.6874 9.42144C18.9439 9.06112 19.1399 8.64241 19.2752 8.16523C19.4104 7.68813 19.4781 7.18658 19.4781 6.66083C19.4781 6.09598 19.408 5.57496 19.2681 5.09787C19.1282 4.62068 18.9253 4.2068 18.6595 3.8563C18.3936 3.50571 18.0718 3.23297 17.6939 3.03835C17.3162 2.84354 16.8893 2.74614 16.4136 2.74614C16.0497 2.74614 15.7116 2.80217 15.3991 2.91412C15.0866 3.02616 14.8091 3.18431 14.5666 3.38885C14.3226 3.59495 14.1103 3.83877 13.9369 4.11185C13.7597 4.38941 13.6244 4.69371 13.5311 5.02484H13.5031V2.92131H13.2233V13H13.5031ZM16.4136 10.3123C15.5368 10.3123 14.8324 9.9983 14.3007 9.37024C13.769 8.74218 13.5031 7.83892 13.5031 6.66065C13.5031 6.17374 13.5684 5.7112 13.699 5.27303C13.8296 4.83486 14.0185 4.45017 14.2657 4.11913C14.5129 3.788 14.8185 3.52508 15.1822 3.33037C15.546 3.13557 15.9565 3.03817 16.4136 3.03817C16.88 3.03817 17.2882 3.13557 17.638 3.33037C17.9878 3.52508 18.277 3.79046 18.5055 4.12641C18.7341 4.46235 18.9066 4.84704 19.0233 5.2803C19.1399 5.71365 19.1982 6.17374 19.1982 6.66065C19.1982 7.09891 19.1446 7.53471 19.0372 7.96797C18.93 8.40132 18.7644 8.79084 18.5405 9.1366C18.3167 9.48219 18.0298 9.76458 17.68 9.98375C17.3301 10.2028 16.908 10.3123 16.4136 10.3123ZM21.0173 10.4292V6.17865C21.0173 5.76967 21.0732 5.37034 21.1852 4.98092C21.2971 4.5914 21.4697 4.24809 21.7029 3.95115C21.9361 3.65413 22.2323 3.42041 22.5915 3.24998C22.9506 3.07955 23.3774 3.00898 23.8718 3.03817V2.74606C23.4426 2.73641 23.0672 2.78498 22.7454 2.89211C22.4235 2.99924 22.146 3.1453 21.9128 3.33037C21.6796 3.51535 21.493 3.73198 21.3531 3.98035C21.2133 4.22832 21.1095 4.49659 21.0452 4.77638H21.0173V2.92131H20.7374V10.4293L21.0173 10.4292ZM24.2216 6.73368H30.2385C30.2572 6.21757 30.2083 5.72102 30.0916 5.24383C29.975 4.76665 29.7884 4.34304 29.5319 3.97307C29.2754 3.60302 28.9442 3.306 28.5384 3.082C28.1326 2.85801 27.6498 2.74606 27.0902 2.74606C26.689 2.74606 26.2972 2.83373 25.9147 3.00906C25.5323 3.18431 25.1964 3.43987 24.9072 3.77582C24.6181 4.11176 24.3849 4.52319 24.2077 5.0102C24.0304 5.49702 23.9418 6.05205 23.9418 6.67529C23.9418 7.23033 24.0024 7.74889 24.1237 8.23089C24.2449 8.7129 24.4315 9.13169 24.6833 9.4871C24.9353 9.84251 25.2595 10.1176 25.6559 10.3123C26.0523 10.5071 26.5304 10.5996 27.0902 10.5899C27.911 10.5899 28.6014 10.3488 29.1611 9.86688C29.7208 9.38479 30.052 8.70562 30.1546 7.82919H29.8748C29.7535 8.65696 29.4432 9.27775 28.9442 9.69155C28.4451 10.1054 27.8178 10.3123 27.0621 10.3123C26.5491 10.3123 26.1153 10.2198 25.7608 10.0349C25.4064 9.84988 25.1171 9.5966 24.8932 9.27529C24.6694 8.9539 24.5038 8.57657 24.3965 8.14322C24.2892 7.70996 24.2309 7.24006 24.2216 6.73368ZM29.9587 6.44157H24.2217C24.2496 5.91573 24.3429 5.44346 24.5014 5.02475C24.6601 4.60595 24.8676 4.24809 25.1242 3.95115C25.3807 3.65413 25.6792 3.42777 26.0197 3.2719C26.3602 3.11611 26.7263 3.03817 27.1181 3.03817C27.5846 3.03817 27.9949 3.12829 28.3495 3.30845C28.7039 3.48861 29.0001 3.73452 29.2381 4.0461C29.4759 4.35768 29.6555 4.72045 29.7767 5.13425C29.898 5.54813 29.9587 5.98394 29.9587 6.44157ZM36.0456 5.14161H36.3254C36.3254 4.30411 36.0922 3.69551 35.6258 3.31573C35.1593 2.93595 34.525 2.74606 33.7228 2.74606C33.2749 2.74606 32.8972 2.80453 32.5893 2.92139C32.2815 3.03817 32.0296 3.18914 31.8337 3.37412C31.6378 3.5591 31.4979 3.76363 31.4139 3.98763C31.33 4.21162 31.288 4.42588 31.288 4.63033C31.288 5.0393 31.3579 5.36552 31.4979 5.60898C31.6378 5.85243 31.857 6.04232 32.1555 6.17865C32.3608 6.27596 32.5939 6.36363 32.8552 6.44166C33.1164 6.51951 33.4196 6.60227 33.7647 6.68985C34.0725 6.76787 34.3757 6.84572 34.6743 6.92357C34.9728 7.00151 35.2363 7.10619 35.4648 7.2376C35.6934 7.36911 35.88 7.53708 36.0246 7.74161C36.1691 7.94606 36.2414 8.21389 36.2414 8.54492C36.2414 8.86632 36.1692 9.13897 36.0246 9.36287C35.8812 9.5857 35.6925 9.77276 35.4719 9.91072C35.248 10.0519 34.9984 10.1541 34.7233 10.2174C34.448 10.2807 34.1799 10.3123 33.9187 10.3123C33.0698 10.3123 32.4191 10.1152 31.9666 9.72083C31.5142 9.32641 31.288 8.70562 31.288 7.85839H31.0081C31.0081 8.80302 31.253 9.49438 31.7427 9.93264C32.2325 10.3708 32.9578 10.5899 33.9187 10.5899C34.2265 10.5899 34.5366 10.5533 34.8492 10.4803C35.1617 10.4073 35.4416 10.288 35.6887 10.1224C35.9338 9.95918 36.1397 9.73932 36.2904 9.47983C36.4443 9.21682 36.5214 8.89551 36.5214 8.51573C36.5214 8.15541 36.4537 7.8633 36.3185 7.6393C36.1832 7.4154 36.006 7.23033 35.7867 7.08427C35.5675 6.93821 35.3203 6.82381 35.0451 6.74105C34.7683 6.6578 34.4908 6.57743 34.2125 6.49996C33.87 6.40616 33.5271 6.31366 33.184 6.22248C32.8902 6.14455 32.6173 6.05205 32.3655 5.94492C32.1229 5.83779 31.9293 5.68446 31.7847 5.48484C31.6401 5.28521 31.5679 5.00038 31.5679 4.63033C31.5679 4.56221 31.5865 4.44044 31.6238 4.26519C31.6611 4.08985 31.7498 3.91214 31.8897 3.73198C32.0296 3.55191 32.2441 3.39121 32.5334 3.24998C32.8225 3.10883 33.219 3.03817 33.7228 3.03817C34.0679 3.03817 34.3827 3.07718 34.6672 3.15503C34.9518 3.23297 35.1967 3.35711 35.4018 3.52754C35.6071 3.69797 35.7657 3.9146 35.8776 4.17752C35.9896 4.44052 36.0456 4.76183 36.0456 5.14161ZM42.5242 5.14161H42.8041C42.8041 4.30411 42.5709 3.69551 42.1045 3.31573C41.638 2.93595 41.0037 2.74606 40.2014 2.74606C39.7537 2.74606 39.3758 2.80453 39.068 2.92139C38.7601 3.03817 38.5083 3.18914 38.3124 3.37412C38.1165 3.5591 37.9766 3.76363 37.8926 3.98763C37.8086 4.21162 37.7667 4.42588 37.7667 4.63033C37.7667 5.0393 37.8366 5.36552 37.9766 5.60898C38.1165 5.85243 38.3358 6.04232 38.6342 6.17865C38.8395 6.27596 39.0726 6.36363 39.3338 6.44166C39.595 6.51951 39.8982 6.60227 40.2434 6.68985C40.5513 6.76787 40.8545 6.84572 41.1529 6.92357C41.4515 7.00151 41.715 7.10619 41.9436 7.2376C42.1721 7.36911 42.3587 7.53708 42.5032 7.74161C42.6479 7.94606 42.7202 8.21389 42.7202 8.54492C42.7202 8.86632 42.6479 9.13897 42.5032 9.36287C42.3599 9.58569 42.1712 9.77275 41.9506 9.91072C41.7266 10.0519 41.4771 10.1541 41.2019 10.2174C40.9268 10.2807 40.6585 10.3123 40.3973 10.3123C39.5484 10.3123 38.8978 10.1152 38.4454 9.72083C37.9929 9.32641 37.7667 8.70562 37.7667 7.85839H37.4868C37.4868 8.80302 37.7317 9.49438 38.2215 9.93264C38.7112 10.3708 39.4365 10.5899 40.3973 10.5899C40.7052 10.5899 41.0154 10.5533 41.3279 10.4803C41.6403 10.4073 41.9202 10.288 42.1675 10.1224C42.4125 9.95918 42.6184 9.73932 42.7691 9.47983C42.9231 9.21682 43 8.89551 43 8.51573C43 8.15541 42.9324 7.8633 42.7971 7.6393C42.6619 7.4154 42.4847 7.23033 42.2654 7.08427C42.0462 6.93821 41.7989 6.82381 41.5238 6.74105C41.247 6.6578 40.9695 6.57743 40.6912 6.49996C40.3487 6.40616 40.0059 6.31366 39.6627 6.22248C39.3689 6.14455 39.096 6.05205 38.8441 5.94492C38.6016 5.83779 38.408 5.68446 38.2634 5.48484C38.1188 5.28521 38.0465 5.00038 38.0465 4.63033C38.0465 4.56221 38.0652 4.44044 38.1025 4.26519C38.1398 4.08985 38.2285 3.91214 38.3683 3.73198C38.5083 3.55191 38.7228 3.39121 39.012 3.24998C39.3012 3.10883 39.6977 3.03817 40.2015 3.03817C40.5466 3.03817 40.8614 3.07718 41.146 3.15503C41.4305 3.23297 41.6753 3.35711 41.8806 3.52754C42.0858 3.69797 42.2444 3.9146 42.3563 4.17752C42.4683 4.44052 42.5242 4.76183 42.5242 5.14161Z"/>
</mask>
<path d="M0.279836 10.1371V5.14161H6.25482V4.84941H0.279836V0.292113H6.63258V0H0V10.4292H6.68852V10.1371H0.279836ZM12.0759 2.92131L9.59916 6.32471L7.17831 2.92139H6.81449L9.43119 6.54388L6.56254 10.4291H6.89839L9.59899 6.76279L12.3136 10.4291H12.6634L9.7809 6.5437L12.4115 2.92122L12.0759 2.92131ZM13.5031 13V8.32593H13.5311C13.699 9.00755 14.0302 9.55531 14.5246 9.96919C15.019 10.383 15.6486 10.59 16.4136 10.59C16.908 10.59 17.3465 10.4853 17.7289 10.2759C18.1114 10.0666 18.4309 9.78176 18.6874 9.42144C18.9439 9.06112 19.1399 8.64241 19.2752 8.16523C19.4104 7.68813 19.4781 7.18658 19.4781 6.66083C19.4781 6.09598 19.408 5.57496 19.2681 5.09787C19.1282 4.62068 18.9253 4.2068 18.6595 3.8563C18.3936 3.50571 18.0718 3.23297 17.6939 3.03835C17.3162 2.84354 16.8893 2.74614 16.4136 2.74614C16.0497 2.74614 15.7116 2.80217 15.3991 2.91412C15.0866 3.02616 14.8091 3.18431 14.5666 3.38885C14.3226 3.59495 14.1103 3.83877 13.9369 4.11185C13.7597 4.38941 13.6244 4.69371 13.5311 5.02484H13.5031V2.92131H13.2233V13H13.5031ZM16.4136 10.3123C15.5368 10.3123 14.8324 9.9983 14.3007 9.37024C13.769 8.74218 13.5031 7.83892 13.5031 6.66065C13.5031 6.17374 13.5684 5.7112 13.699 5.27303C13.8296 4.83486 14.0185 4.45017 14.2657 4.11913C14.5129 3.788 14.8185 3.52508 15.1822 3.33037C15.546 3.13557 15.9565 3.03817 16.4136 3.03817C16.88 3.03817 17.2882 3.13557 17.638 3.33037C17.9878 3.52508 18.277 3.79046 18.5055 4.12641C18.7341 4.46235 18.9066 4.84704 19.0233 5.2803C19.1399 5.71365 19.1982 6.17374 19.1982 6.66065C19.1982 7.09891 19.1446 7.53471 19.0372 7.96797C18.93 8.40132 18.7644 8.79084 18.5405 9.1366C18.3167 9.48219 18.0298 9.76458 17.68 9.98375C17.3301 10.2028 16.908 10.3123 16.4136 10.3123ZM21.0173 10.4292V6.17865C21.0173 5.76967 21.0732 5.37034 21.1852 4.98092C21.2971 4.5914 21.4697 4.24809 21.7029 3.95115C21.9361 3.65413 22.2323 3.42041 22.5915 3.24998C22.9506 3.07955 23.3774 3.00898 23.8718 3.03817V2.74606C23.4426 2.73641 23.0672 2.78498 22.7454 2.89211C22.4235 2.99924 22.146 3.1453 21.9128 3.33037C21.6796 3.51535 21.493 3.73198 21.3531 3.98035C21.2133 4.22832 21.1095 4.49659 21.0452 4.77638H21.0173V2.92131H20.7374V10.4293L21.0173 10.4292ZM24.2216 6.73368H30.2385C30.2572 6.21757 30.2083 5.72102 30.0916 5.24383C29.975 4.76665 29.7884 4.34304 29.5319 3.97307C29.2754 3.60302 28.9442 3.306 28.5384 3.082C28.1326 2.85801 27.6498 2.74606 27.0902 2.74606C26.689 2.74606 26.2972 2.83373 25.9147 3.00906C25.5323 3.18431 25.1964 3.43987 24.9072 3.77582C24.6181 4.11176 24.3849 4.52319 24.2077 5.0102C24.0304 5.49702 23.9418 6.05205 23.9418 6.67529C23.9418 7.23033 24.0024 7.74889 24.1237 8.23089C24.2449 8.7129 24.4315 9.13169 24.6833 9.4871C24.9353 9.84251 25.2595 10.1176 25.6559 10.3123C26.0523 10.5071 26.5304 10.5996 27.0902 10.5899C27.911 10.5899 28.6014 10.3488 29.1611 9.86688C29.7208 9.38479 30.052 8.70562 30.1546 7.82919H29.8748C29.7535 8.65696 29.4432 9.27775 28.9442 9.69155C28.4451 10.1054 27.8178 10.3123 27.0621 10.3123C26.5491 10.3123 26.1153 10.2198 25.7608 10.0349C25.4064 9.84988 25.1171 9.5966 24.8932 9.27529C24.6694 8.9539 24.5038 8.57657 24.3965 8.14322C24.2892 7.70996 24.2309 7.24006 24.2216 6.73368ZM29.9587 6.44157H24.2217C24.2496 5.91573 24.3429 5.44346 24.5014 5.02475C24.6601 4.60595 24.8676 4.24809 25.1242 3.95115C25.3807 3.65413 25.6792 3.42777 26.0197 3.2719C26.3602 3.11611 26.7263 3.03817 27.1181 3.03817C27.5846 3.03817 27.9949 3.12829 28.3495 3.30845C28.7039 3.48861 29.0001 3.73452 29.2381 4.0461C29.4759 4.35768 29.6555 4.72045 29.7767 5.13425C29.898 5.54813 29.9587 5.98394 29.9587 6.44157ZM36.0456 5.14161H36.3254C36.3254 4.30411 36.0922 3.69551 35.6258 3.31573C35.1593 2.93595 34.525 2.74606 33.7228 2.74606C33.2749 2.74606 32.8972 2.80453 32.5893 2.92139C32.2815 3.03817 32.0296 3.18914 31.8337 3.37412C31.6378 3.5591 31.4979 3.76363 31.4139 3.98763C31.33 4.21162 31.288 4.42588 31.288 4.63033C31.288 5.0393 31.3579 5.36552 31.4979 5.60898C31.6378 5.85243 31.857 6.04232 32.1555 6.17865C32.3608 6.27596 32.5939 6.36363 32.8552 6.44166C33.1164 6.51951 33.4196 6.60227 33.7647 6.68985C34.0725 6.76787 34.3757 6.84572 34.6743 6.92357C34.9728 7.00151 35.2363 7.10619 35.4648 7.2376C35.6934 7.36911 35.88 7.53708 36.0246 7.74161C36.1691 7.94606 36.2414 8.21389 36.2414 8.54492C36.2414 8.86632 36.1692 9.13897 36.0246 9.36287C35.8812 9.5857 35.6925 9.77276 35.4719 9.91072C35.248 10.0519 34.9984 10.1541 34.7233 10.2174C34.448 10.2807 34.1799 10.3123 33.9187 10.3123C33.0698 10.3123 32.4191 10.1152 31.9666 9.72083C31.5142 9.32641 31.288 8.70562 31.288 7.85839H31.0081C31.0081 8.80302 31.253 9.49438 31.7427 9.93264C32.2325 10.3708 32.9578 10.5899 33.9187 10.5899C34.2265 10.5899 34.5366 10.5533 34.8492 10.4803C35.1617 10.4073 35.4416 10.288 35.6887 10.1224C35.9338 9.95918 36.1397 9.73932 36.2904 9.47983C36.4443 9.21682 36.5214 8.89551 36.5214 8.51573C36.5214 8.15541 36.4537 7.8633 36.3185 7.6393C36.1832 7.4154 36.006 7.23033 35.7867 7.08427C35.5675 6.93821 35.3203 6.82381 35.0451 6.74105C34.7683 6.6578 34.4908 6.57743 34.2125 6.49996C33.87 6.40616 33.5271 6.31366 33.184 6.22248C32.8902 6.14455 32.6173 6.05205 32.3655 5.94492C32.1229 5.83779 31.9293 5.68446 31.7847 5.48484C31.6401 5.28521 31.5679 5.00038 31.5679 4.63033C31.5679 4.56221 31.5865 4.44044 31.6238 4.26519C31.6611 4.08985 31.7498 3.91214 31.8897 3.73198C32.0296 3.55191 32.2441 3.39121 32.5334 3.24998C32.8225 3.10883 33.219 3.03817 33.7228 3.03817C34.0679 3.03817 34.3827 3.07718 34.6672 3.15503C34.9518 3.23297 35.1967 3.35711 35.4018 3.52754C35.6071 3.69797 35.7657 3.9146 35.8776 4.17752C35.9896 4.44052 36.0456 4.76183 36.0456 5.14161ZM42.5242 5.14161H42.8041C42.8041 4.30411 42.5709 3.69551 42.1045 3.31573C41.638 2.93595 41.0037 2.74606 40.2014 2.74606C39.7537 2.74606 39.3758 2.80453 39.068 2.92139C38.7601 3.03817 38.5083 3.18914 38.3124 3.37412C38.1165 3.5591 37.9766 3.76363 37.8926 3.98763C37.8086 4.21162 37.7667 4.42588 37.7667 4.63033C37.7667 5.0393 37.8366 5.36552 37.9766 5.60898C38.1165 5.85243 38.3358 6.04232 38.6342 6.17865C38.8395 6.27596 39.0726 6.36363 39.3338 6.44166C39.595 6.51951 39.8982 6.60227 40.2434 6.68985C40.5513 6.76787 40.8545 6.84572 41.1529 6.92357C41.4515 7.00151 41.715 7.10619 41.9436 7.2376C42.1721 7.36911 42.3587 7.53708 42.5032 7.74161C42.6479 7.94606 42.7202 8.21389 42.7202 8.54492C42.7202 8.86632 42.6479 9.13897 42.5032 9.36287C42.3599 9.58569 42.1712 9.77275 41.9506 9.91072C41.7266 10.0519 41.4771 10.1541 41.2019 10.2174C40.9268 10.2807 40.6585 10.3123 40.3973 10.3123C39.5484 10.3123 38.8978 10.1152 38.4454 9.72083C37.9929 9.32641 37.7667 8.70562 37.7667 7.85839H37.4868C37.4868 8.80302 37.7317 9.49438 38.2215 9.93264C38.7112 10.3708 39.4365 10.5899 40.3973 10.5899C40.7052 10.5899 41.0154 10.5533 41.3279 10.4803C41.6403 10.4073 41.9202 10.288 42.1675 10.1224C42.4125 9.95918 42.6184 9.73932 42.7691 9.47983C42.9231 9.21682 43 8.89551 43 8.51573C43 8.15541 42.9324 7.8633 42.7971 7.6393C42.6619 7.4154 42.4847 7.23033 42.2654 7.08427C42.0462 6.93821 41.7989 6.82381 41.5238 6.74105C41.247 6.6578 40.9695 6.57743 40.6912 6.49996C40.3487 6.40616 40.0059 6.31366 39.6627 6.22248C39.3689 6.14455 39.096 6.05205 38.8441 5.94492C38.6016 5.83779 38.408 5.68446 38.2634 5.48484C38.1188 5.28521 38.0465 5.00038 38.0465 4.63033C38.0465 4.56221 38.0652 4.44044 38.1025 4.26519C38.1398 4.08985 38.2285 3.91214 38.3683 3.73198C38.5083 3.55191 38.7228 3.39121 39.012 3.24998C39.3012 3.10883 39.6977 3.03817 40.2015 3.03817C40.5466 3.03817 40.8614 3.07718 41.146 3.15503C41.4305 3.23297 41.6753 3.35711 41.8806 3.52754C42.0858 3.69797 42.2444 3.9146 42.3563 4.17752C42.4683 4.44052 42.5242 4.76183 42.5242 5.14161Z" fill="#222222" stroke="black" stroke-width="6" mask="url(#path-1-inside-1_125_229)"/>
</svg>
