<svg width="134" height="45" viewBox="0 0 134 45" fill="none" xmlns="http://www.w3.org/2000/svg">
<path fill-rule="evenodd" clip-rule="evenodd" d="M1 18.562L1.44625 17.9664L18.5119 1H37.5619L45.797 12.0133V22.4313L34.3869 7.44917H21.1908L10.0782 18.5617L17.7181 26.9953L21.5879 27.1442L28.2354 20.9927L33.2709 26.4251L23.8451 34.958H13.9481L1 18.562Z" fill="black" stroke="#131337" stroke-width="0.149992"/>
<path fill-rule="evenodd" clip-rule="evenodd" d="M46.1695 26.6105L45.7232 27.206L28.6576 44.1725H9.6076L1.37247 33.1592V22.7412L12.7826 37.7233H25.9787L37.0913 26.6108L29.6166 17.7937L26.3982 17.725L20.0255 23.5844L14.99 18.5489L23.3244 10.2145H33.2214L46.1695 26.6105Z" fill="black" stroke="#131337" stroke-width="0.149992"/>
<path d="M50.2526 15.6486C50.0224 15.6486 49.8178 15.5718 49.6388 15.4184C49.4725 15.2521 49.3894 15.0603 49.3894 14.8429C49.3894 14.6255 49.4725 14.4401 49.6388 14.2866C49.8178 14.1332 50.0224 14.0564 50.2526 14.0564C50.4828 14.0564 50.681 14.1332 50.8473 14.2866C51.0135 14.4401 51.0966 14.6255 51.0966 14.8429C51.0966 15.0603 51.0135 15.2521 50.8473 15.4184C50.681 15.5718 50.4828 15.6486 50.2526 15.6486ZM50.2334 27.4073C50.0672 27.4073 49.9201 27.3562 49.7922 27.2539C49.6771 27.1516 49.6196 27.0365 49.6196 26.9086V18.8137C49.6196 18.6602 49.6771 18.5451 49.7922 18.4684C49.9201 18.3789 50.0672 18.3341 50.2334 18.3341C50.4125 18.3341 50.5595 18.3789 50.6746 18.4684C50.8025 18.5451 50.8664 18.6602 50.8664 18.8137V26.9086C50.8664 27.0365 50.8025 27.1516 50.6746 27.2539C50.5595 27.3562 50.4125 27.4073 50.2334 27.4073ZM54.0228 27.4073C53.8822 27.4073 53.7479 27.369 53.62 27.2922C53.5049 27.2027 53.4474 27.0748 53.4474 26.9086V13.8838C53.4474 13.7176 53.5049 13.5961 53.62 13.5193C53.7479 13.4298 53.8822 13.3851 54.0228 13.3851H60.8517C61.018 13.3851 61.1395 13.449 61.2162 13.5769C61.2929 13.692 61.3313 13.8199 61.3313 13.9605C61.3313 14.114 61.2865 14.2547 61.197 14.3825C61.1203 14.4976 61.0052 14.5552 60.8517 14.5552H54.7134V19.8303H57.725C57.8785 19.8303 57.9936 19.8879 58.0703 20.003C58.1598 20.118 58.2046 20.2523 58.2046 20.4058C58.2046 20.5337 58.1662 20.6552 58.0895 20.7702C58.0128 20.8853 57.8913 20.9429 57.725 20.9429H54.7134V26.2372H60.8517C61.0052 26.2372 61.1203 26.2947 61.197 26.4098C61.2865 26.5249 61.3313 26.6656 61.3313 26.8318C61.3313 26.9725 61.2929 27.1068 61.2162 27.2347C61.1395 27.3498 61.018 27.4073 60.8517 27.4073H54.0228ZM62.939 27.4457C62.8239 27.4457 62.7024 27.4137 62.5745 27.3498C62.4594 27.2858 62.3635 27.2091 62.2868 27.1196C62.2101 27.0301 62.1717 26.9278 62.1717 26.8127C62.1717 26.7231 62.1973 26.6208 62.2484 26.5058L65.567 20.3866L62.3252 14.3058C62.2357 14.1651 62.1909 14.0373 62.1909 13.9222C62.1909 13.8071 62.2293 13.7112 62.306 13.6344C62.3827 13.5449 62.4722 13.4746 62.5745 13.4234C62.6896 13.3723 62.8111 13.3467 62.939 13.3467C63.1052 13.3467 63.2395 13.417 63.3418 13.5577C63.4441 13.6984 63.5337 13.8454 63.6104 13.9989L66.3535 19.274L69.1157 13.9989C69.1924 13.8454 69.2819 13.6984 69.3843 13.5577C69.4993 13.417 69.6336 13.3467 69.7871 13.3467C69.915 13.3467 70.0301 13.3723 70.1324 13.4234C70.2475 13.4746 70.337 13.5449 70.4009 13.6344C70.4776 13.7112 70.516 13.8071 70.516 13.9222C70.516 14.0373 70.4776 14.1651 70.4009 14.3058L67.1399 20.3866L70.4585 26.5058C70.5224 26.6208 70.5544 26.7231 70.5544 26.8127C70.5544 26.9278 70.516 27.0301 70.4393 27.1196C70.3625 27.2091 70.2666 27.2858 70.1515 27.3498C70.0365 27.4137 69.915 27.4457 69.7871 27.4457C69.6592 27.4457 69.5441 27.3753 69.4418 27.2347C69.3395 27.094 69.2564 26.9661 69.1924 26.851L66.3535 21.4608L63.5337 26.851C63.4697 26.9661 63.3866 27.094 63.2843 27.2347C63.1948 27.3753 63.0797 27.4457 62.939 27.4457ZM76.1289 27.5224C75.4128 27.5224 74.7478 27.3881 74.134 27.1196C73.5201 26.851 73.0342 26.4162 72.6761 25.8152C72.318 25.2141 72.139 24.4149 72.139 23.4174V17.4901C72.139 16.4926 72.3244 15.6933 72.6953 15.0923C73.0662 14.4912 73.5521 14.0564 74.1532 13.7879C74.767 13.5193 75.4384 13.3851 76.1673 13.3851C77.0113 13.3851 77.7275 13.5321 78.3157 13.8263C78.904 14.1204 79.3516 14.5104 79.6585 14.9964C79.9782 15.4823 80.138 16.0194 80.138 16.6077C80.138 16.9146 80.0805 17.1192 79.9654 17.2215C79.8631 17.311 79.7096 17.3558 79.505 17.3558C79.2748 17.3558 79.1086 17.311 79.0063 17.2215C78.9168 17.1192 78.8656 17.0041 78.8528 16.8762C78.8528 16.6716 78.8144 16.4414 78.7377 16.1857C78.6738 15.9171 78.5459 15.6614 78.3541 15.4184C78.175 15.1626 77.9065 14.958 77.5484 14.8046C77.2031 14.6383 76.7492 14.5552 76.1865 14.5552C75.2913 14.5552 74.6071 14.7982 74.134 15.2841C73.6608 15.7573 73.4242 16.4926 73.4242 17.4901V23.4174C73.4242 24.4277 73.6608 25.1694 74.134 25.6425C74.6199 26.1157 75.3233 26.3523 76.244 26.3523C76.8195 26.3523 77.2735 26.2756 77.606 26.1221C77.9385 25.9559 78.1878 25.7576 78.3541 25.5275C78.5203 25.2845 78.6354 25.0287 78.6994 24.7602C78.7761 24.4788 78.8272 24.2231 78.8528 23.9929C78.8784 23.8266 78.9359 23.7051 79.0255 23.6284C79.1278 23.5389 79.2812 23.4941 79.4858 23.4941C79.7032 23.4941 79.8631 23.5517 79.9654 23.6668C80.0805 23.7691 80.138 23.9737 80.138 24.2806C80.138 24.8561 79.9782 25.3932 79.6585 25.8919C79.3388 26.3779 78.8784 26.7743 78.2773 27.0812C77.6891 27.3753 76.9729 27.5224 76.1289 27.5224ZM83.0037 27.4073C82.8374 27.4073 82.6904 27.369 82.5625 27.2922C82.4346 27.2027 82.3707 27.0748 82.3707 26.9086V13.8646C82.3707 13.6984 82.4346 13.5769 82.5625 13.5002C82.6904 13.4234 82.8374 13.3851 83.0037 13.3851C83.1571 13.3851 83.2978 13.4234 83.4257 13.5002C83.5664 13.5769 83.6367 13.6984 83.6367 13.8646V19.5809H89.1804V13.8646C89.1804 13.6984 89.2443 13.5769 89.3722 13.5002C89.5001 13.4234 89.6471 13.3851 89.8134 13.3851C89.9669 13.3851 90.1075 13.4234 90.2354 13.5002C90.3761 13.5769 90.4464 13.6984 90.4464 13.8646V26.9086C90.4464 27.0748 90.3761 27.2027 90.2354 27.2922C90.1075 27.369 89.9669 27.4073 89.8134 27.4073C89.6471 27.4073 89.5001 27.369 89.3722 27.2922C89.2443 27.2027 89.1804 27.0748 89.1804 26.9086V20.6935H83.6367V26.9086C83.6367 27.0748 83.5664 27.2027 83.4257 27.2922C83.2978 27.369 83.1571 27.4073 83.0037 27.4073ZM93.0215 27.4073C92.9192 27.4073 92.8105 27.3881 92.6954 27.3498C92.5803 27.2986 92.4844 27.2347 92.4076 27.1579C92.3309 27.0684 92.2926 26.9725 92.2926 26.8702C92.2926 26.8191 92.2989 26.7743 92.3117 26.7359L96.3208 13.7303C96.372 13.5641 96.4679 13.449 96.6086 13.3851C96.7492 13.3083 96.9027 13.27 97.0689 13.27C97.248 13.27 97.4078 13.3083 97.5485 13.3851C97.702 13.4618 97.7979 13.5769 97.8362 13.7303L101.826 26.7359C101.839 26.7743 101.845 26.8127 101.845 26.851C101.845 26.9533 101.807 27.0492 101.73 27.1388C101.654 27.2155 101.558 27.2794 101.443 27.3306C101.327 27.3817 101.206 27.4073 101.078 27.4073C100.976 27.4073 100.88 27.3817 100.79 27.3306C100.701 27.2794 100.637 27.1963 100.598 27.0812L99.7161 24.1271H94.4218L93.5394 27.0812C93.501 27.1963 93.4371 27.2794 93.3476 27.3306C93.2581 27.3817 93.1494 27.4073 93.0215 27.4073ZM94.7287 23.0338H99.39L97.0689 15.3033L94.7287 23.0338ZM104.321 27.4073C104.155 27.4073 104.008 27.369 103.88 27.2922C103.752 27.2027 103.688 27.0748 103.688 26.9086V13.8646C103.688 13.6856 103.752 13.5641 103.88 13.5002C104.008 13.4234 104.155 13.3851 104.321 13.3851C104.475 13.3851 104.609 13.4298 104.724 13.5193C104.839 13.5961 104.948 13.7048 105.05 13.8454C105.153 13.9733 105.242 14.1204 105.319 14.2866L110.498 24.4724V13.8646C110.498 13.6984 110.562 13.5769 110.69 13.5002C110.818 13.4234 110.965 13.3851 111.131 13.3851C111.285 13.3851 111.425 13.4234 111.553 13.5002C111.694 13.5769 111.764 13.6984 111.764 13.8646V26.9086C111.764 27.0748 111.694 27.2027 111.553 27.2922C111.425 27.369 111.285 27.4073 111.131 27.4073C110.952 27.4073 110.786 27.337 110.632 27.1963C110.492 27.0429 110.377 26.8702 110.287 26.6784L104.955 16.3008V26.9086C104.955 27.0748 104.884 27.2027 104.744 27.2922C104.616 27.369 104.475 27.4073 104.321 27.4073ZM118.521 27.5224C117.779 27.5224 117.108 27.3881 116.507 27.1196C115.906 26.851 115.426 26.4162 115.068 25.8152C114.71 25.2141 114.531 24.4149 114.531 23.4174V17.4901C114.531 16.4926 114.71 15.6933 115.068 15.0923C115.426 14.4912 115.899 14.0564 116.488 13.7879C117.089 13.5193 117.76 13.3851 118.502 13.3851C119.32 13.3851 120.03 13.5321 120.631 13.8263C121.232 14.1076 121.699 14.4976 122.031 14.9964C122.364 15.4951 122.53 16.0706 122.53 16.7228C122.53 16.953 122.473 17.1192 122.358 17.2215C122.242 17.311 122.089 17.3558 121.897 17.3558C121.718 17.3558 121.565 17.3174 121.437 17.2407C121.322 17.164 121.258 17.0425 121.245 16.8762C121.194 16.3903 121.059 15.9747 120.842 15.6294C120.625 15.2841 120.324 15.022 119.941 14.8429C119.557 14.6511 119.084 14.5552 118.521 14.5552C117.664 14.5552 116.999 14.7982 116.526 15.2841C116.053 15.7573 115.816 16.4926 115.816 17.4901V23.4174C115.816 24.4149 116.053 25.1566 116.526 25.6425C116.999 26.1157 117.664 26.3523 118.521 26.3523C119.378 26.3523 120.043 26.1157 120.516 25.6425C121.002 25.1566 121.245 24.4149 121.245 23.4174V21.1347H118.694C118.54 21.1347 118.419 21.0836 118.329 20.9813C118.252 20.8662 118.214 20.7383 118.214 20.5976C118.214 20.4569 118.252 20.3291 118.329 20.214C118.419 20.0989 118.54 20.0413 118.694 20.0413H122.051C122.204 20.0413 122.319 20.0925 122.396 20.1948C122.485 20.2971 122.53 20.4186 122.53 20.5592V23.4174C122.53 24.4149 122.351 25.2141 121.993 25.8152C121.635 26.4162 121.155 26.851 120.554 27.1196C119.953 27.3881 119.276 27.5224 118.521 27.5224ZM125.657 27.4073C125.516 27.4073 125.382 27.369 125.254 27.2922C125.139 27.2027 125.081 27.0748 125.081 26.9086V13.8838C125.081 13.7176 125.139 13.5961 125.254 13.5193C125.382 13.4298 125.516 13.3851 125.657 13.3851H132.486C132.652 13.3851 132.773 13.449 132.85 13.5769C132.927 13.692 132.965 13.8199 132.965 13.9605C132.965 14.114 132.92 14.2547 132.831 14.3825C132.754 14.4976 132.639 14.5552 132.486 14.5552H126.347V19.8303H129.359C129.512 19.8303 129.627 19.8879 129.704 20.003C129.794 20.118 129.838 20.2523 129.838 20.4058C129.838 20.5337 129.8 20.6552 129.723 20.7702C129.647 20.8853 129.525 20.9429 129.359 20.9429H126.347V26.2372H132.486C132.639 26.2372 132.754 26.2947 132.831 26.4098C132.92 26.5249 132.965 26.6656 132.965 26.8318C132.965 26.9725 132.927 27.1068 132.85 27.2347C132.773 27.3498 132.652 27.4073 132.486 27.4073H125.657Z" fill="black"/>
<path d="M54.423 32.531C54.0427 32.531 53.7513 32.4446 53.5488 32.2717C53.3463 32.0989 53.245 31.8223 53.245 31.442V27.5452C53.245 27.4859 53.2697 27.4415 53.3191 27.4118C53.3735 27.3773 53.4278 27.36 53.4821 27.36C53.5463 27.36 53.6031 27.3773 53.6525 27.4118C53.7019 27.4415 53.7266 27.4859 53.7266 27.5452V29.0269H54.6897C54.7391 29.0269 54.7786 29.0466 54.8082 29.0861C54.8378 29.1256 54.8527 29.1726 54.8527 29.2269C54.8527 29.2812 54.8378 29.3281 54.8082 29.3676C54.7786 29.4072 54.7391 29.4269 54.6897 29.4269H53.7266V31.442C53.7266 31.684 53.7784 31.8544 53.8822 31.9532C53.9859 32.047 54.1662 32.0939 54.423 32.0939H54.6304C54.6996 32.0939 54.7514 32.1161 54.786 32.1606C54.8255 32.2001 54.8452 32.2495 54.8452 32.3088C54.8452 32.368 54.8255 32.4199 54.786 32.4643C54.7514 32.5088 54.6996 32.531 54.6304 32.531H54.423ZM55.6892 32.531C55.625 32.531 55.5682 32.5113 55.5188 32.4717C55.4744 32.4322 55.4522 32.3878 55.4522 32.3384V27.0637C55.4522 27.0044 55.4744 26.9599 55.5188 26.9303C55.5682 26.8957 55.625 26.8784 55.6892 26.8784C55.7584 26.8784 55.8152 26.8957 55.8596 26.9303C55.909 26.9599 55.9337 27.0044 55.9337 27.0637V29.5454C56.0177 29.4022 56.1411 29.2738 56.3041 29.1602C56.4671 29.0417 56.6696 28.9824 56.9116 28.9824C57.1487 28.9824 57.366 29.0466 57.5635 29.175C57.766 29.2985 57.9265 29.4664 58.0451 29.6788C58.1636 29.8862 58.2229 30.1184 58.2229 30.3752V32.3384C58.2229 32.4026 58.1982 32.452 58.1488 32.4866C58.0994 32.5162 58.0426 32.531 57.9784 32.531C57.9241 32.531 57.8697 32.5162 57.8154 32.4866C57.766 32.452 57.7413 32.4026 57.7413 32.3384V30.3752C57.7413 30.2122 57.6993 30.0591 57.6154 29.9159C57.5314 29.7726 57.4203 29.6566 57.282 29.5677C57.1437 29.4738 56.9906 29.4269 56.8227 29.4269C56.6745 29.4269 56.5313 29.4664 56.393 29.5454C56.2597 29.6195 56.1485 29.7257 56.0596 29.864C55.9757 30.0023 55.9337 30.1727 55.9337 30.3752V32.3384C55.9337 32.3878 55.909 32.4322 55.8596 32.4717C55.8152 32.5113 55.7584 32.531 55.6892 32.531ZM60.5796 32.5829C60.2684 32.5829 59.9919 32.5236 59.7499 32.4051C59.5128 32.2865 59.3251 32.1235 59.1868 31.9161C59.0535 31.7037 58.9868 31.4568 58.9868 31.1753V30.353C58.9868 30.106 59.051 29.8788 59.1794 29.6714C59.3078 29.459 59.4782 29.2911 59.6906 29.1676C59.9079 29.0442 60.145 28.9824 60.4018 28.9824C60.6487 28.9824 60.8759 29.0417 61.0834 29.1602C61.2957 29.2738 61.4661 29.4319 61.5945 29.6343C61.7229 29.8368 61.7871 30.0714 61.7871 30.3381C61.7871 30.5258 61.755 30.6616 61.6908 30.7456C61.6266 30.8296 61.5451 30.8814 61.4464 30.9012C61.3525 30.916 61.2513 30.9234 61.1426 30.9234H59.4683V31.1975C59.4683 31.4938 59.5745 31.7284 59.7869 31.9013C59.9993 32.0742 60.2684 32.1606 60.5944 32.1606C60.792 32.1606 60.9451 32.1359 61.0537 32.0865C61.1624 32.0371 61.2463 31.9877 61.3056 31.9383C61.3698 31.889 61.4291 31.8643 61.4834 31.8643C61.5229 31.8643 61.5575 31.8791 61.5871 31.9087C61.6217 31.9334 61.6464 31.963 61.6612 31.9976C61.681 32.0322 61.6908 32.0643 61.6908 32.0939C61.6908 32.1482 61.6464 32.2149 61.5575 32.2939C61.4686 32.373 61.3402 32.4421 61.1723 32.5014C61.0043 32.5557 60.8068 32.5829 60.5796 32.5829ZM59.4683 30.5678H60.95C61.0982 30.5678 61.1969 30.553 61.2463 30.5233C61.2957 30.4888 61.3204 30.4196 61.3204 30.3159C61.3204 30.1579 61.2809 30.0097 61.2019 29.8714C61.1229 29.7282 61.0142 29.6121 60.8759 29.5232C60.7376 29.4294 60.5771 29.3825 60.3944 29.3825C60.2265 29.3825 60.0709 29.4244 59.9277 29.5084C59.7894 29.5924 59.6782 29.701 59.5943 29.8344C59.5103 29.9677 59.4683 30.1184 59.4683 30.2863V30.5678ZM65.3076 32.5829C64.9816 32.5829 64.7125 32.5211 64.5001 32.3977C64.2877 32.2742 64.1297 32.1063 64.026 31.8939C63.9223 31.6815 63.8704 31.442 63.8704 31.1753V30.39C63.8704 30.1233 63.9198 29.8838 64.0186 29.6714C64.1223 29.459 64.2803 29.2911 64.4927 29.1676C64.71 29.0442 64.9816 28.9824 65.3076 28.9824C65.515 28.9824 65.6953 29.0096 65.8484 29.0639C66.0065 29.1133 66.1275 29.175 66.2114 29.2491C66.3003 29.3232 66.3448 29.3948 66.3448 29.464C66.3448 29.4985 66.3349 29.5356 66.3151 29.5751C66.3003 29.6097 66.2756 29.6393 66.2411 29.664C66.2114 29.6887 66.1769 29.701 66.1373 29.701C66.0929 29.701 66.041 29.6788 65.9818 29.6343C65.9274 29.585 65.8509 29.538 65.7521 29.4936C65.6533 29.4491 65.5126 29.4269 65.3298 29.4269C65.0088 29.4269 64.7643 29.5133 64.5964 29.6862C64.4334 29.8541 64.3519 30.0887 64.3519 30.39V31.1753C64.3519 31.4766 64.4334 31.7136 64.5964 31.8865C64.7643 32.0544 65.0113 32.1384 65.3372 32.1384C65.5249 32.1384 65.6706 32.1161 65.7743 32.0717C65.8781 32.0223 65.9571 31.9754 66.0114 31.9309C66.0707 31.8815 66.125 31.8568 66.1744 31.8568C66.2188 31.8568 66.2559 31.8692 66.2855 31.8939C66.3201 31.9186 66.3448 31.9482 66.3596 31.9828C66.3793 32.0174 66.3892 32.0544 66.3892 32.0939C66.3892 32.1581 66.3448 32.2297 66.2559 32.3088C66.167 32.3828 66.041 32.447 65.8781 32.5014C65.72 32.5557 65.5299 32.5829 65.3076 32.5829ZM68.4273 32.5829C68.1656 32.5829 67.926 32.5187 67.7087 32.3902C67.4963 32.2618 67.326 32.0914 67.1975 31.8791C67.0741 31.6618 67.0123 31.4321 67.0123 31.1901V29.2195C67.0123 29.1701 67.037 29.1256 67.0864 29.0861C67.1358 29.0466 67.1926 29.0269 67.2568 29.0269C67.321 29.0269 67.3753 29.0466 67.4198 29.0861C67.4692 29.1256 67.4939 29.1701 67.4939 29.2195V31.1901C67.4939 31.3531 67.5359 31.5062 67.6198 31.6494C67.7038 31.7926 67.8149 31.9112 67.9532 32.005C68.0915 32.0939 68.2471 32.1384 68.4199 32.1384C68.5977 32.1384 68.7558 32.0939 68.8941 32.005C69.0323 31.9161 69.141 31.8001 69.22 31.6568C69.304 31.5087 69.346 31.3531 69.346 31.1901V29.2121C69.346 29.1577 69.3707 29.1133 69.42 29.0787C69.4694 29.0442 69.5262 29.0269 69.5904 29.0269C69.6645 29.0269 69.7213 29.0442 69.7608 29.0787C69.8053 29.1133 69.8275 29.1577 69.8275 29.2121V31.1901C69.8275 31.442 69.7633 31.6741 69.6349 31.8865C69.5114 32.0939 69.341 32.2618 69.1237 32.3902C68.9113 32.5187 68.6792 32.5829 68.4273 32.5829ZM70.9543 32.531C70.8901 32.531 70.8333 32.5113 70.7839 32.4717C70.7394 32.4322 70.7172 32.3878 70.7172 32.3384V29.2121C70.7172 29.1528 70.7394 29.1084 70.7839 29.0787C70.8333 29.0442 70.8901 29.0269 70.9543 29.0269C71.0185 29.0269 71.0728 29.0442 71.1172 29.0787C71.1617 29.1084 71.1839 29.1528 71.1839 29.2121V29.5751C71.2382 29.4714 71.3123 29.3751 71.4062 29.2862C71.5 29.1973 71.6111 29.1256 71.7395 29.0713C71.868 29.012 72.0137 28.9824 72.1766 28.9824H72.4359C72.4903 28.9824 72.5347 29.0046 72.5693 29.0491C72.6088 29.0935 72.6285 29.1454 72.6285 29.2047C72.6285 29.2689 72.6088 29.3232 72.5693 29.3676C72.5347 29.4072 72.4903 29.4269 72.4359 29.4269H72.1766C72.0137 29.4269 71.8556 29.4714 71.7025 29.5603C71.5543 29.6492 71.4333 29.7726 71.3395 29.9307C71.2457 30.0887 71.1987 30.2813 71.1987 30.5085V32.3384C71.1987 32.3878 71.174 32.4322 71.1247 32.4717C71.0802 32.5113 71.0234 32.531 70.9543 32.531ZM73.3996 32.531C73.3354 32.531 73.2786 32.5113 73.2292 32.4717C73.1848 32.4322 73.1625 32.3878 73.1625 32.3384V29.2121C73.1625 29.1528 73.1848 29.1084 73.2292 29.0787C73.2786 29.0442 73.3354 29.0269 73.3996 29.0269C73.4638 29.0269 73.5181 29.0442 73.5626 29.0787C73.607 29.1084 73.6293 29.1528 73.6293 29.2121V29.5751C73.6836 29.4714 73.7577 29.3751 73.8515 29.2862C73.9453 29.1973 74.0565 29.1256 74.1849 29.0713C74.3133 29.012 74.459 28.9824 74.622 28.9824H74.8813C74.9356 28.9824 74.98 29.0046 75.0146 29.0491C75.0541 29.0935 75.0739 29.1454 75.0739 29.2047C75.0739 29.2689 75.0541 29.3232 75.0146 29.3676C74.98 29.4072 74.9356 29.4269 74.8813 29.4269H74.622C74.459 29.4269 74.3009 29.4714 74.1478 29.5603C73.9997 29.6492 73.8787 29.7726 73.7848 29.9307C73.691 30.0887 73.6441 30.2813 73.6441 30.5085V32.3384C73.6441 32.3878 73.6194 32.4322 73.57 32.4717C73.5255 32.5113 73.4687 32.531 73.3996 32.531ZM76.9155 32.5829C76.6044 32.5829 76.3278 32.5236 76.0858 32.4051C75.8487 32.2865 75.6611 32.1235 75.5228 31.9161C75.3894 31.7037 75.3227 31.4568 75.3227 31.1753V30.353C75.3227 30.106 75.387 29.8788 75.5154 29.6714C75.6438 29.459 75.8142 29.2911 76.0265 29.1676C76.2439 29.0442 76.4809 28.9824 76.7377 28.9824C76.9847 28.9824 77.2119 29.0417 77.4193 29.1602C77.6317 29.2738 77.8021 29.4319 77.9305 29.6343C78.0589 29.8368 78.1231 30.0714 78.1231 30.3381C78.1231 30.5258 78.091 30.6616 78.0268 30.7456C77.9626 30.8296 77.8811 30.8814 77.7823 30.9012C77.6885 30.916 77.5872 30.9234 77.4786 30.9234H75.8043V31.1975C75.8043 31.4938 75.9105 31.7284 76.1228 31.9013C76.3352 32.0742 76.6044 32.1606 76.9304 32.1606C77.1279 32.1606 77.281 32.1359 77.3897 32.0865C77.4983 32.0371 77.5823 31.9877 77.6416 31.9383C77.7058 31.889 77.765 31.8643 77.8194 31.8643C77.8589 31.8643 77.8934 31.8791 77.9231 31.9087C77.9576 31.9334 77.9823 31.963 77.9972 31.9976C78.0169 32.0322 78.0268 32.0643 78.0268 32.0939C78.0268 32.1482 77.9823 32.2149 77.8934 32.2939C77.8045 32.373 77.6761 32.4421 77.5082 32.5014C77.3403 32.5557 77.1427 32.5829 76.9155 32.5829ZM75.8043 30.5678H77.286C77.4341 30.5678 77.5329 30.553 77.5823 30.5233C77.6317 30.4888 77.6564 30.4196 77.6564 30.3159C77.6564 30.1579 77.6169 30.0097 77.5378 29.8714C77.4588 29.7282 77.3502 29.6121 77.2119 29.5232C77.0736 29.4294 76.9131 29.3825 76.7303 29.3825C76.5624 29.3825 76.4068 29.4244 76.2636 29.5084C76.1253 29.5924 76.0142 29.701 75.9302 29.8344C75.8463 29.9677 75.8043 30.1184 75.8043 30.2863V30.5678ZM79.0788 32.531C79.0146 32.531 78.9578 32.5113 78.9084 32.4717C78.864 32.4322 78.8418 32.3878 78.8418 32.3384V29.2121C78.8418 29.1528 78.864 29.1084 78.9084 29.0787C78.9578 29.0442 79.0146 29.0269 79.0788 29.0269C79.143 29.0269 79.1974 29.0442 79.2418 29.0787C79.2863 29.1084 79.3085 29.1528 79.3085 29.2121V29.5454C79.3875 29.4022 79.511 29.2738 79.6789 29.1602C79.8468 29.0417 80.0543 28.9824 80.3012 28.9824C80.5383 28.9824 80.7556 29.0466 80.9531 29.175C81.1556 29.2985 81.3161 29.4664 81.4347 29.6788C81.5532 29.8862 81.6125 30.1184 81.6125 30.3752V32.3384C81.6125 32.4026 81.5878 32.452 81.5384 32.4866C81.489 32.5162 81.4322 32.531 81.368 32.531C81.3137 32.531 81.2594 32.5162 81.205 32.4866C81.1556 32.452 81.1309 32.4026 81.1309 32.3384V30.3752C81.1309 30.2122 81.089 30.0591 81.005 29.9159C80.921 29.7726 80.8099 29.6566 80.6716 29.5677C80.5333 29.4738 80.3802 29.4269 80.2123 29.4269C80.0641 29.4269 79.9209 29.4664 79.7826 29.5454C79.6493 29.6195 79.5381 29.7257 79.4492 29.864C79.3653 30.0023 79.3233 30.1727 79.3233 30.3752V32.3384C79.3233 32.3878 79.2986 32.4322 79.2492 32.4717C79.2048 32.5113 79.148 32.531 79.0788 32.531ZM83.8212 32.5829C83.4952 32.5829 83.2261 32.5211 83.0137 32.3977C82.8013 32.2742 82.6433 32.1063 82.5396 31.8939C82.4358 31.6815 82.384 31.442 82.384 31.1753V30.39C82.384 30.1233 82.4334 29.8838 82.5322 29.6714C82.6359 29.459 82.7939 29.2911 83.0063 29.1676C83.2236 29.0442 83.4952 28.9824 83.8212 28.9824C84.0286 28.9824 84.2089 29.0096 84.362 29.0639C84.5201 29.1133 84.6411 29.175 84.725 29.2491C84.8139 29.3232 84.8584 29.3948 84.8584 29.464C84.8584 29.4985 84.8485 29.5356 84.8287 29.5751C84.8139 29.6097 84.7892 29.6393 84.7547 29.664C84.725 29.6887 84.6904 29.701 84.6509 29.701C84.6065 29.701 84.5546 29.6788 84.4954 29.6343C84.441 29.585 84.3645 29.538 84.2657 29.4936C84.1669 29.4491 84.0262 29.4269 83.8434 29.4269C83.5224 29.4269 83.2779 29.5133 83.11 29.6862C82.947 29.8541 82.8655 30.0887 82.8655 30.39V31.1753C82.8655 31.4766 82.947 31.7136 83.11 31.8865C83.2779 32.0544 83.5249 32.1384 83.8508 32.1384C84.0385 32.1384 84.1842 32.1161 84.2879 32.0717C84.3916 32.0223 84.4707 31.9754 84.525 31.9309C84.5843 31.8815 84.6386 31.8568 84.688 31.8568C84.7324 31.8568 84.7695 31.8692 84.7991 31.8939C84.8337 31.9186 84.8584 31.9482 84.8732 31.9828C84.8929 32.0174 84.9028 32.0544 84.9028 32.0939C84.9028 32.1581 84.8584 32.2297 84.7695 32.3088C84.6806 32.3828 84.5546 32.447 84.3916 32.5014C84.2336 32.5557 84.0435 32.5829 83.8212 32.5829ZM85.4296 34.2497C85.3654 34.2497 85.3111 34.2325 85.2666 34.1979C85.2222 34.1682 85.2 34.1139 85.2 34.0349C85.2 33.9756 85.2123 33.9238 85.237 33.8793C85.2617 33.8349 85.3012 33.8126 85.3555 33.8126C85.4741 33.8126 85.5877 33.7756 85.6963 33.7015C85.805 33.6274 85.9062 33.5213 86.0001 33.383C86.0939 33.2496 86.1779 33.0965 86.2519 32.9236C86.326 32.7557 86.3853 32.5755 86.4297 32.3828L85.2148 29.2862C85.2049 29.2565 85.2 29.2318 85.2 29.2121C85.2 29.1676 85.2148 29.1306 85.2444 29.1009C85.279 29.0664 85.3185 29.0392 85.3629 29.0195C85.4123 28.9948 85.4568 28.9824 85.4963 28.9824C85.5358 28.9824 85.5704 28.9923 85.6 29.012C85.6346 29.0269 85.6568 29.0516 85.6667 29.0861L86.6816 31.8124L87.6373 29.0861C87.6521 29.0516 87.6743 29.0269 87.704 29.012C87.7336 28.9923 87.7657 28.9824 87.8003 28.9824C87.8398 28.9824 87.8818 28.9923 87.9262 29.012C87.9756 29.0318 88.0151 29.059 88.0448 29.0935C88.0793 29.1281 88.0966 29.1701 88.0966 29.2195C88.0966 29.2442 88.0917 29.2664 88.0818 29.2862L86.9335 32.3902C86.8594 32.5878 86.7804 32.7952 86.6964 33.0125C86.6125 33.2299 86.5137 33.4299 86.4001 33.6126C86.2915 33.8003 86.1581 33.9534 86.0001 34.0719C85.842 34.1905 85.6519 34.2497 85.4296 34.2497ZM90.3867 32.531C90.3225 32.531 90.2657 32.5113 90.2163 32.4717C90.1718 32.4322 90.1496 32.3878 90.1496 32.3384V29.2121C90.1496 29.1528 90.1718 29.1084 90.2163 29.0787C90.2657 29.0442 90.3225 29.0269 90.3867 29.0269C90.4509 29.0269 90.5052 29.0442 90.5497 29.0787C90.5941 29.1084 90.6163 29.1528 90.6163 29.2121V29.5454C90.7003 29.4022 90.8238 29.2738 90.9867 29.1602C91.1547 29.0417 91.3596 28.9824 91.6016 28.9824C91.8486 28.9824 92.0634 29.0516 92.2462 29.1898C92.4289 29.3281 92.5647 29.5059 92.6536 29.7232C92.782 29.4714 92.9475 29.2862 93.15 29.1676C93.3574 29.0442 93.5673 28.9824 93.7797 28.9824C93.9921 28.9824 94.1921 29.0367 94.3798 29.1454C94.5724 29.2541 94.728 29.4121 94.8465 29.6195C94.965 29.822 95.0243 30.0739 95.0243 30.3752V32.3384C95.0243 32.3878 94.9996 32.4322 94.9502 32.4717C94.9058 32.5113 94.849 32.531 94.7798 32.531C94.7156 32.531 94.6588 32.5113 94.6094 32.4717C94.565 32.4322 94.5427 32.3878 94.5427 32.3384V30.3752C94.5427 30.1628 94.5008 29.9875 94.4168 29.8492C94.3328 29.7109 94.2242 29.6072 94.0908 29.538C93.9624 29.464 93.8315 29.4269 93.6982 29.4269C93.555 29.4269 93.4167 29.464 93.2833 29.538C93.1549 29.6121 93.0463 29.7183 92.9574 29.8566C92.8734 29.9899 92.8314 30.1505 92.8314 30.3381V32.3458C92.8314 32.41 92.8043 32.4569 92.7499 32.4866C92.7005 32.5162 92.6462 32.531 92.5869 32.531C92.5326 32.531 92.4783 32.5162 92.424 32.4866C92.3746 32.4569 92.3499 32.41 92.3499 32.3458V30.3455C92.3499 30.1677 92.3104 30.0097 92.2313 29.8714C92.1523 29.7331 92.0486 29.6245 91.9202 29.5454C91.7967 29.4664 91.6584 29.4269 91.5053 29.4269C91.3621 29.4269 91.2238 29.464 91.0905 29.538C90.9571 29.6121 90.846 29.7208 90.7571 29.864C90.6731 30.0023 90.6311 30.1727 90.6311 30.3752V32.3384C90.6311 32.3878 90.6064 32.4322 90.5571 32.4717C90.5126 32.5113 90.4558 32.531 90.3867 32.531ZM96.7008 32.5829C96.4192 32.5829 96.1797 32.5038 95.9822 32.3458C95.7895 32.1828 95.6932 31.9359 95.6932 31.605C95.6932 31.3333 95.7648 31.1259 95.9081 30.9827C96.0562 30.8345 96.2587 30.7333 96.5156 30.6789C96.7773 30.6197 97.0786 30.59 97.4194 30.59H97.7972V30.4196C97.7972 30.2566 97.7676 30.0986 97.7083 29.9455C97.654 29.7875 97.5626 29.659 97.4342 29.5603C97.3107 29.4565 97.1403 29.4047 96.923 29.4047C96.76 29.4047 96.6267 29.422 96.523 29.4565C96.4192 29.4911 96.3378 29.5282 96.2785 29.5677C96.2192 29.6022 96.1698 29.6195 96.1303 29.6195C96.0711 29.6195 96.0217 29.5899 95.9822 29.5306C95.9476 29.4714 95.9303 29.417 95.9303 29.3676C95.9303 29.2985 95.9822 29.2368 96.0859 29.1824C96.1896 29.1232 96.318 29.0763 96.4711 29.0417C96.6292 29.0022 96.7847 28.9824 96.9378 28.9824C97.2687 28.9824 97.5305 29.0516 97.7231 29.1898C97.9207 29.3232 98.0614 29.4985 98.1454 29.7158C98.2343 29.9332 98.2787 30.1653 98.2787 30.4122V32.3384C98.2787 32.3927 98.2565 32.4396 98.2121 32.4791C98.1726 32.5137 98.1158 32.531 98.0417 32.531C97.9824 32.531 97.9281 32.5137 97.8787 32.4791C97.8342 32.4396 97.812 32.3927 97.812 32.3384V32.0124C97.6885 32.1606 97.5354 32.2939 97.3527 32.4125C97.17 32.5261 96.9526 32.5829 96.7008 32.5829ZM96.8193 32.1754C96.9823 32.1754 97.1379 32.1334 97.286 32.0495C97.4342 31.9655 97.5552 31.8643 97.649 31.7457C97.7478 31.6223 97.7972 31.5062 97.7972 31.3975V30.9234H97.486C97.2638 30.9234 97.0514 30.9382 96.8489 30.9678C96.6514 30.9925 96.4884 31.0493 96.36 31.1382C96.2365 31.2271 96.1748 31.3679 96.1748 31.5605C96.1748 31.7729 96.2365 31.9285 96.36 32.0272C96.4884 32.126 96.6415 32.1754 96.8193 32.1754ZM99.4083 32.531C99.3441 32.531 99.2873 32.5113 99.2379 32.4717C99.1935 32.4322 99.1713 32.3878 99.1713 32.3384V29.2121C99.1713 29.1528 99.1935 29.1084 99.2379 29.0787C99.2873 29.0442 99.3441 29.0269 99.4083 29.0269C99.4725 29.0269 99.5269 29.0442 99.5713 29.0787C99.6158 29.1084 99.638 29.1528 99.638 29.2121V29.5751C99.6923 29.4714 99.7664 29.3751 99.8602 29.2862C99.9541 29.1973 100.065 29.1256 100.194 29.0713C100.322 29.012 100.468 28.9824 100.631 28.9824H100.89C100.944 28.9824 100.989 29.0046 101.023 29.0491C101.063 29.0935 101.083 29.1454 101.083 29.2047C101.083 29.2689 101.063 29.3232 101.023 29.3676C100.989 29.4072 100.944 29.4269 100.89 29.4269H100.631C100.468 29.4269 100.31 29.4714 100.157 29.5603C100.008 29.6492 99.8874 29.7726 99.7936 29.9307C99.6997 30.0887 99.6528 30.2813 99.6528 30.5085V32.3384C99.6528 32.3878 99.6281 32.4322 99.5787 32.4717C99.5343 32.5113 99.4775 32.531 99.4083 32.531ZM101.861 32.531C101.797 32.531 101.74 32.5113 101.691 32.4717C101.646 32.4322 101.624 32.3878 101.624 32.3384V27.0637C101.624 27.0044 101.646 26.9599 101.691 26.9303C101.74 26.8957 101.797 26.8784 101.861 26.8784C101.93 26.8784 101.987 26.8957 102.031 26.9303C102.081 26.9599 102.106 27.0044 102.106 27.0637V30.6641L103.913 29.0565C103.953 29.0269 103.99 29.012 104.024 29.012C104.064 29.012 104.101 29.0244 104.135 29.0491C104.175 29.0688 104.207 29.096 104.232 29.1306C104.256 29.1602 104.269 29.1973 104.269 29.2417C104.269 29.2664 104.264 29.2911 104.254 29.3158C104.249 29.3355 104.237 29.3553 104.217 29.3751L103.128 30.3381L104.41 32.205C104.429 32.2347 104.439 32.2692 104.439 32.3088C104.439 32.3433 104.427 32.3804 104.402 32.4199C104.377 32.4594 104.343 32.4915 104.298 32.5162C104.259 32.5409 104.219 32.5532 104.18 32.5532C104.121 32.5532 104.071 32.5236 104.032 32.4643L102.787 30.6419L102.106 31.2345V32.3384C102.106 32.3878 102.081 32.4322 102.031 32.4717C101.987 32.5113 101.93 32.531 101.861 32.531ZM106.368 32.5829C106.057 32.5829 105.78 32.5236 105.538 32.4051C105.301 32.2865 105.114 32.1235 104.975 31.9161C104.842 31.7037 104.775 31.4568 104.775 31.1753V30.353C104.775 30.106 104.839 29.8788 104.968 29.6714C105.096 29.459 105.267 29.2911 105.479 29.1676C105.696 29.0442 105.933 28.9824 106.19 28.9824C106.437 28.9824 106.664 29.0417 106.872 29.1602C107.084 29.2738 107.255 29.4319 107.383 29.6343C107.511 29.8368 107.576 30.0714 107.576 30.3381C107.576 30.5258 107.543 30.6616 107.479 30.7456C107.415 30.8296 107.334 30.8814 107.235 30.9012C107.141 30.916 107.04 30.9234 106.931 30.9234H105.257V31.1975C105.257 31.4938 105.363 31.7284 105.575 31.9013C105.788 32.0742 106.057 32.1606 106.383 32.1606C106.58 32.1606 106.733 32.1359 106.842 32.0865C106.951 32.0371 107.035 31.9877 107.094 31.9383C107.158 31.889 107.217 31.8643 107.272 31.8643C107.311 31.8643 107.346 31.8791 107.376 31.9087C107.41 31.9334 107.435 31.963 107.45 31.9976C107.469 32.0322 107.479 32.0643 107.479 32.0939C107.479 32.1482 107.435 32.2149 107.346 32.2939C107.257 32.373 107.129 32.4421 106.961 32.5014C106.793 32.5557 106.595 32.5829 106.368 32.5829ZM105.257 30.5678H106.738C106.887 30.5678 106.985 30.553 107.035 30.5233C107.084 30.4888 107.109 30.4196 107.109 30.3159C107.109 30.1579 107.069 30.0097 106.99 29.8714C106.911 29.7282 106.803 29.6121 106.664 29.5232C106.526 29.4294 106.366 29.3825 106.183 29.3825C106.015 29.3825 105.859 29.4244 105.716 29.5084C105.578 29.5924 105.467 29.701 105.383 29.8344C105.299 29.9677 105.257 30.1184 105.257 30.2863V30.5678ZM109.457 32.531C109.077 32.531 108.786 32.4446 108.583 32.2717C108.381 32.0989 108.279 31.8223 108.279 31.442V27.5452C108.279 27.4859 108.304 27.4415 108.353 27.4118C108.408 27.3773 108.462 27.36 108.516 27.36C108.581 27.36 108.637 27.3773 108.687 27.4118C108.736 27.4415 108.761 27.4859 108.761 27.5452V29.0269H109.724C109.773 29.0269 109.813 29.0466 109.843 29.0861C109.872 29.1256 109.887 29.1726 109.887 29.2269C109.887 29.2812 109.872 29.3281 109.843 29.3676C109.813 29.4072 109.773 29.4269 109.724 29.4269H108.761V31.442C108.761 31.684 108.813 31.8544 108.917 31.9532C109.02 32.047 109.201 32.0939 109.457 32.0939H109.665C109.734 32.0939 109.786 32.1161 109.82 32.1606C109.86 32.2001 109.88 32.2495 109.88 32.3088C109.88 32.368 109.86 32.4199 109.82 32.4643C109.786 32.5088 109.734 32.531 109.665 32.531H109.457ZM110.724 34.2497C110.659 34.2497 110.603 34.23 110.553 34.1905C110.509 34.151 110.487 34.1065 110.487 34.0571V29.2121C110.487 29.1528 110.509 29.1084 110.553 29.0787C110.603 29.0442 110.659 29.0269 110.724 29.0269C110.788 29.0269 110.842 29.0442 110.887 29.0787C110.931 29.1084 110.953 29.1528 110.953 29.2121V29.5454C111.037 29.4022 111.163 29.2738 111.331 29.1602C111.499 29.0417 111.704 28.9824 111.946 28.9824C112.193 28.9824 112.415 29.0466 112.613 29.175C112.815 29.2985 112.976 29.4664 113.094 29.6788C113.218 29.8862 113.279 30.1184 113.279 30.3752V31.1753C113.279 31.4173 113.218 31.6469 113.094 31.8643C112.976 32.0816 112.818 32.2569 112.62 32.3902C112.423 32.5187 112.205 32.5829 111.968 32.5829C111.741 32.5829 111.538 32.5261 111.361 32.4125C111.183 32.2989 111.052 32.1655 110.968 32.0124V34.0571C110.968 34.1065 110.943 34.151 110.894 34.1905C110.85 34.23 110.793 34.2497 110.724 34.2497ZM111.879 32.1384C112.042 32.1384 112.193 32.0939 112.331 32.005C112.469 31.9112 112.581 31.7902 112.665 31.642C112.753 31.4938 112.798 31.3383 112.798 31.1753V30.3752C112.798 30.2122 112.753 30.0591 112.665 29.9159C112.581 29.7726 112.469 29.6566 112.331 29.5677C112.193 29.4738 112.037 29.4269 111.864 29.4269C111.716 29.4269 111.573 29.4664 111.435 29.5454C111.301 29.6195 111.19 29.7257 111.101 29.864C111.013 30.0023 110.968 30.1727 110.968 30.3752V31.4049C110.968 31.479 111.008 31.5753 111.087 31.6939C111.166 31.8075 111.274 31.9112 111.413 32.005C111.551 32.0939 111.706 32.1384 111.879 32.1384ZM114.371 32.531C114.307 32.531 114.25 32.5113 114.201 32.4717C114.156 32.4322 114.134 32.3878 114.134 32.3384V27.0637C114.134 27.0044 114.156 26.9599 114.201 26.9303C114.25 26.8957 114.307 26.8784 114.371 26.8784C114.44 26.8784 114.497 26.8957 114.542 26.9303C114.591 26.9599 114.616 27.0044 114.616 27.0637V32.3384C114.616 32.3878 114.591 32.4322 114.542 32.4717C114.497 32.5113 114.44 32.531 114.371 32.531ZM116.386 32.5829C116.105 32.5829 115.865 32.5038 115.668 32.3458C115.475 32.1828 115.379 31.9359 115.379 31.605C115.379 31.3333 115.45 31.1259 115.594 30.9827C115.742 30.8345 115.944 30.7333 116.201 30.6789C116.463 30.6197 116.764 30.59 117.105 30.59H117.483V30.4196C117.483 30.2566 117.453 30.0986 117.394 29.9455C117.34 29.7875 117.248 29.659 117.12 29.5603C116.996 29.4565 116.826 29.4047 116.609 29.4047C116.446 29.4047 116.312 29.422 116.209 29.4565C116.105 29.4911 116.023 29.5282 115.964 29.5677C115.905 29.6022 115.855 29.6195 115.816 29.6195C115.757 29.6195 115.707 29.5899 115.668 29.5306C115.633 29.4714 115.616 29.417 115.616 29.3676C115.616 29.2985 115.668 29.2368 115.771 29.1824C115.875 29.1232 116.004 29.0763 116.157 29.0417C116.315 29.0022 116.47 28.9824 116.623 28.9824C116.954 28.9824 117.216 29.0516 117.409 29.1898C117.606 29.3232 117.747 29.4985 117.831 29.7158C117.92 29.9332 117.964 30.1653 117.964 30.4122V32.3384C117.964 32.3927 117.942 32.4396 117.898 32.4791C117.858 32.5137 117.801 32.531 117.727 32.531C117.668 32.531 117.614 32.5137 117.564 32.4791C117.52 32.4396 117.498 32.3927 117.498 32.3384V32.0124C117.374 32.1606 117.221 32.2939 117.038 32.4125C116.856 32.5261 116.638 32.5829 116.386 32.5829ZM116.505 32.1754C116.668 32.1754 116.823 32.1334 116.972 32.0495C117.12 31.9655 117.241 31.8643 117.335 31.7457C117.433 31.6223 117.483 31.5062 117.483 31.3975V30.9234H117.172C116.949 30.9234 116.737 30.9382 116.535 30.9678C116.337 30.9925 116.174 31.0493 116.046 31.1382C115.922 31.2271 115.86 31.3679 115.86 31.5605C115.86 31.7729 115.922 31.9285 116.046 32.0272C116.174 32.126 116.327 32.1754 116.505 32.1754ZM120.176 32.5829C119.85 32.5829 119.58 32.5211 119.368 32.3977C119.156 32.2742 118.998 32.1063 118.894 31.8939C118.79 31.6815 118.738 31.442 118.738 31.1753V30.39C118.738 30.1233 118.788 29.8838 118.887 29.6714C118.99 29.459 119.148 29.2911 119.361 29.1676C119.578 29.0442 119.85 28.9824 120.176 28.9824C120.383 28.9824 120.563 29.0096 120.716 29.0639C120.874 29.1133 120.995 29.175 121.079 29.2491C121.168 29.3232 121.213 29.3948 121.213 29.464C121.213 29.4985 121.203 29.5356 121.183 29.5751C121.168 29.6097 121.144 29.6393 121.109 29.664C121.079 29.6887 121.045 29.701 121.005 29.701C120.961 29.701 120.909 29.6788 120.85 29.6343C120.795 29.585 120.719 29.538 120.62 29.4936C120.521 29.4491 120.381 29.4269 120.198 29.4269C119.877 29.4269 119.632 29.5133 119.464 29.6862C119.301 29.8541 119.22 30.0887 119.22 30.39V31.1753C119.22 31.4766 119.301 31.7136 119.464 31.8865C119.632 32.0544 119.879 32.1384 120.205 32.1384C120.393 32.1384 120.539 32.1161 120.642 32.0717C120.746 32.0223 120.825 31.9754 120.879 31.9309C120.939 31.8815 120.993 31.8568 121.042 31.8568C121.087 31.8568 121.124 31.8692 121.153 31.8939C121.188 31.9186 121.213 31.9482 121.228 31.9828C121.247 32.0174 121.257 32.0544 121.257 32.0939C121.257 32.1581 121.213 32.2297 121.124 32.3088C121.035 32.3828 120.909 32.447 120.746 32.5014C120.588 32.5557 120.398 32.5829 120.176 32.5829ZM123.333 32.5829C123.022 32.5829 122.746 32.5236 122.504 32.4051C122.267 32.2865 122.079 32.1235 121.941 31.9161C121.807 31.7037 121.741 31.4568 121.741 31.1753V30.353C121.741 30.106 121.805 29.8788 121.933 29.6714C122.062 29.459 122.232 29.2911 122.444 29.1676C122.662 29.0442 122.899 28.9824 123.156 28.9824C123.403 28.9824 123.63 29.0417 123.837 29.1602C124.05 29.2738 124.22 29.4319 124.348 29.6343C124.477 29.8368 124.541 30.0714 124.541 30.3381C124.541 30.5258 124.509 30.6616 124.445 30.7456C124.38 30.8296 124.299 30.8814 124.2 30.9012C124.106 30.916 124.005 30.9234 123.896 30.9234H122.222V31.1975C122.222 31.4938 122.328 31.7284 122.541 31.9013C122.753 32.0742 123.022 32.1606 123.348 32.1606C123.546 32.1606 123.699 32.1359 123.808 32.0865C123.916 32.0371 124 31.9877 124.059 31.9383C124.124 31.889 124.183 31.8643 124.237 31.8643C124.277 31.8643 124.311 31.8791 124.341 31.9087C124.375 31.9334 124.4 31.963 124.415 31.9976C124.435 32.0322 124.445 32.0643 124.445 32.0939C124.445 32.1482 124.4 32.2149 124.311 32.2939C124.222 32.373 124.094 32.4421 123.926 32.5014C123.758 32.5557 123.561 32.5829 123.333 32.5829ZM122.222 30.5678H123.704C123.852 30.5678 123.951 30.553 124 30.5233C124.05 30.4888 124.074 30.4196 124.074 30.3159C124.074 30.1579 124.035 30.0097 123.956 29.8714C123.877 29.7282 123.768 29.6121 123.63 29.5232C123.491 29.4294 123.331 29.3825 123.148 29.3825C122.98 29.3825 122.825 29.4244 122.681 29.5084C122.543 29.5924 122.432 29.701 122.348 29.8344C122.264 29.9677 122.222 30.1184 122.222 30.2863V30.5678Z" fill="black"/>
</svg>
