<svg width="42" height="41" viewBox="0 0 42 41" fill="none" xmlns="http://www.w3.org/2000/svg">
<path d="M18.9537 16.919H22.1364L22.9272 15.8365V7.35878H18.1636V15.8374L18.9537 16.919ZM16.9024 20.7002L17.8856 17.6908L17.0947 16.6087L8.98574 13.9889L7.51392 18.4934L15.6239 21.1136L16.9024 20.7003V20.7002ZM19.8851 23.8091L17.3107 21.9488L16.0308 22.3624L11.0195 29.2214L14.8732 32.0051L19.8851 25.146V23.8091ZM23.7801 21.9483L21.205 23.8086L21.2057 25.1463L26.2172 32.0051L30.071 29.2213L25.0585 22.3617L23.7803 21.9485L23.7801 21.9483ZM23.2041 17.6901L24.1877 20.7L25.4673 21.1131L33.5764 18.4934L32.1041 13.9886L23.9948 16.6089L23.2041 17.6901Z" fill="#8A4182"/>
<path d="M20.546 0C9.21712 0 0 9.16374 0 20.427C0 31.6944 9.21712 40.8606 20.5463 40.8606C31.8742 40.8606 41.0904 31.6944 41.0904 20.427C41.0904 9.16358 31.8742 0 20.5463 0H20.546ZM20.546 4.13618C29.5933 4.13618 36.9299 11.4289 36.9299 20.4268C36.9299 29.428 29.5933 36.7239 20.546 36.7239C11.4959 36.7239 4.16013 29.428 4.16013 20.4268C4.16013 11.4289 11.4959 4.13618 20.5461 4.13618H20.546Z" fill="#8A4182"/>
<path d="M32.9899 24.9674L26.8257 22.9758L27.2333 21.7273L33.3975 23.7189L32.9899 24.9674ZM25.1283 15.1272L24.0599 14.3558L27.8694 9.14172L28.9376 9.91332L25.1282 15.1272H25.1283ZM16.0283 15.0798L12.2193 9.86557L13.2875 9.09412L17.0965 14.308L16.0283 15.0798ZM8.07523 24.8896L7.66748 23.6411L13.831 21.6503L14.2389 22.8987L8.07523 24.8896ZM19.8445 33.4517H21.1647V27.0066H19.8446V33.4517H19.8445Z" fill="#8A4182"/>
</svg>
