<svg width="37" height="41" viewBox="0 0 37 41" fill="none" xmlns="http://www.w3.org/2000/svg">
<path d="M35.4722 20.1699C35.4722 19.1098 35.051 18.0931 34.3014 17.3434C33.5518 16.5938 32.5351 16.1727 31.475 16.1727C31.3346 16.1726 31.1943 16.1797 31.0547 16.1942L36.5458 0H13.2117L18.6951 16.1804C18.6154 16.1804 18.5341 16.1727 18.4528 16.1727C17.4982 16.1716 16.5748 16.5121 15.8496 17.1327C15.1243 17.7532 14.645 18.6129 14.4984 19.5561C14.3519 20.4993 14.5477 21.4638 15.0504 22.2752C15.5532 23.0866 16.3297 23.6913 17.2395 23.9799C16.3892 25.4439 15.3305 26.7764 14.0967 27.9356C12.4906 29.471 10.5824 30.6552 8.49361 31.4128C7.32331 30.8582 6.40803 29.8789 5.93369 28.6738C5.45935 27.4687 5.46153 26.1283 5.93979 24.9247C6.05789 24.6486 6.17753 24.3695 6.29103 24.0903C7.18227 23.8804 7.97447 23.371 8.53528 22.6473C9.09608 21.9235 9.39151 21.0292 9.3722 20.1138C9.35288 19.1984 9.02 18.3173 8.42916 17.6178C7.83833 16.9183 7.02534 16.4428 6.12605 16.2707C5.22675 16.0986 4.29563 16.2403 3.48827 16.6722C2.68091 17.1041 2.04622 17.8 1.69026 18.6435C1.33429 19.4871 1.27862 20.4273 1.53253 21.307C1.78645 22.1867 2.33458 22.9527 3.08533 23.4768C1.80943 25.7903 0.835674 28.2579 0.187923 30.8192C-0.355053 34.094 0.187923 37.5681 3.01784 39.5329C9.61331 44.1053 16.7748 36.6984 24.3243 34.8379C27.0606 34.163 30.0639 34.2719 32.4735 32.8761C33.3441 32.3803 34.0948 31.6989 34.6724 30.8803C35.25 30.0617 35.6404 29.126 35.8157 28.1396C35.9761 27.1997 35.9459 26.2372 35.7269 25.3092C35.5079 24.3812 35.1047 23.5066 34.5411 22.7375C35.1424 22.0189 35.4715 21.1115 35.4706 20.1745L35.4722 20.1699ZM22.4515 20.1913V20.1775C22.4526 19.4897 22.2758 18.8132 21.9382 18.2139C21.6007 17.6145 21.1138 17.1127 20.525 16.7571L24.8872 7.9207L29.2586 16.8384C28.7102 17.2028 28.2606 17.6974 27.9498 18.2779C27.6391 18.8584 27.4769 19.5068 27.4778 20.1653V20.2527L22.4515 20.1913Z" fill="#C63D14"/>
</svg>
