<svg width="39" height="44" viewBox="0 0 39 44" fill="none" xmlns="http://www.w3.org/2000/svg">
<g clip-path="url(#clip0_125_226)">
<path d="M19.4879 43.9184C18.8827 43.9184 18.3179 43.757 17.7934 43.4746L12.427 40.2871C11.6201 39.8433 12.0236 39.6819 12.2656 39.6012C13.355 39.2381 13.5567 39.1574 14.6864 38.5117C14.8076 38.431 14.969 38.4714 15.0899 38.5521L19.2055 41.0133C19.3668 41.094 19.5686 41.094 19.6896 41.0133L35.7884 31.6931C35.9498 31.6124 36.0305 31.451 36.0305 31.2493V12.6489C36.0305 12.4471 35.9498 12.2857 35.7884 12.2051L19.6896 2.92501C19.5282 2.84432 19.3265 2.84432 19.2055 2.92501L3.10664 12.2052C2.94526 12.2859 2.86457 12.4876 2.86457 12.649V31.2493C2.86457 31.4107 2.94526 31.6124 3.10664 31.6931L7.50466 34.2349C9.88523 35.4453 11.3779 34.0332 11.3779 32.6211V14.2627C11.3779 14.0206 11.5798 13.7785 11.8622 13.7785H13.92C14.1621 13.7785 14.4041 13.9803 14.4041 14.2627V32.6209C14.4041 35.8084 12.6691 37.6643 9.643 37.6643C8.71504 37.6643 7.98882 37.6643 5.93117 36.6557L1.69453 34.2349C0.645536 33.6296 0 32.4999 0 31.2895V12.6894C0 11.479 0.645536 10.3493 1.69453 9.74395L17.7934 0.42371C18.802 -0.141135 20.1738 -0.141135 21.1824 0.42371L37.2812 9.74395C38.3302 10.3491 38.9758 11.4788 38.9758 12.6894V31.2896C38.9758 32.5 38.3302 33.6297 37.2812 34.2349L21.1824 43.5554C20.6579 43.7975 20.0527 43.9185 19.4879 43.9185V43.9184ZM24.4506 31.1281C17.3897 31.1281 15.9373 27.9004 15.9373 25.1567C15.9373 24.9147 16.139 24.6726 16.4214 24.6726H18.5194C18.7615 24.6726 18.9634 24.834 18.9634 25.076C19.2862 27.2144 20.2141 28.2635 24.4909 28.2635C27.8802 28.2635 29.3328 27.497 29.3328 25.6814C29.3328 24.6322 28.9293 23.8657 23.6437 23.341C19.2458 22.8972 16.5021 21.9289 16.5021 18.4188C16.5021 15.1505 19.2457 13.2139 23.8454 13.2139C29.0099 13.2139 31.5518 14.9891 31.8746 18.8624C31.8746 18.9835 31.8342 19.1045 31.7535 19.2256C31.6728 19.3063 31.5518 19.3869 31.4308 19.3869H29.3328C29.1309 19.3869 28.9293 19.2256 28.8888 19.0238C28.4047 16.8048 27.1539 16.0786 23.8454 16.0786C20.1336 16.0786 19.6896 17.3696 19.6896 18.338C19.6896 19.5081 20.2141 19.8711 25.2172 20.5166C30.18 21.1622 32.5201 22.0903 32.5201 25.5602C32.4798 29.1108 29.5748 31.1281 24.4506 31.1281Z" fill="#539E43"/>
</g>
<defs>
<clipPath id="clip0_125_226">
<rect width="38.9758" height="44" fill="white"/>
</clipPath>
</defs>
</svg>
