<svg width="50" height="44" viewBox="0 0 50 44" fill="none" xmlns="http://www.w3.org/2000/svg">
<g clip-path="url(#clip0_125_195)">
<path d="M40.6195 14.2469C40.0938 14.0665 39.5635 13.8994 39.0294 13.7457C39.1191 13.379 39.2017 13.0168 39.275 12.6609C40.4788 6.81725 39.6919 2.10944 37.0038 0.559403C34.4265 -0.926562 30.2116 0.622894 25.9548 4.32758C25.5353 4.69334 25.125 5.06965 24.7245 5.45614C24.4564 5.19914 24.1835 4.94712 23.9061 4.70023C19.4447 0.73907 14.9729 -0.930421 12.2878 0.624052C9.71281 2.11465 8.95033 6.54032 10.0341 12.0785C10.1419 12.627 10.2637 13.1727 10.3992 13.715C9.76626 13.8949 9.15547 14.0863 8.57093 14.2901C3.34033 16.1138 0 18.9717 0 21.9361C0 24.9977 3.586 28.0687 9.03389 29.9308C9.47556 30.0811 9.92091 30.2204 10.3695 30.3486C10.2238 30.9327 10.0945 31.5207 9.98163 32.112C8.9484 37.5541 9.75526 41.8752 12.3233 43.3564C14.9756 44.8859 19.4273 43.3139 23.7619 39.5247C24.1134 39.2166 24.4572 38.8998 24.7928 38.5746C25.2266 38.9931 25.6719 39.3994 26.1283 39.7931C30.3272 43.4061 34.474 44.8651 37.0395 43.3799C39.6894 41.8459 40.5506 37.2039 39.4325 31.5562C39.3444 31.1138 39.2456 30.6735 39.1363 30.2359C39.4489 30.1432 39.7557 30.0479 40.0549 29.9487C45.7185 28.0723 49.4035 25.0386 49.4035 21.9361C49.4035 18.9609 45.9553 16.0837 40.6195 14.2469ZM39.3912 27.9455C39.121 28.0349 38.8439 28.1212 38.5614 28.2051C37.9361 26.2257 37.0924 24.121 36.0597 21.9463C37.0451 19.8235 37.8564 17.7456 38.4641 15.7792C38.9695 15.9254 39.4599 16.0796 39.9327 16.2423C44.5045 17.8163 47.293 20.1431 47.293 21.9361C47.293 23.8458 44.2814 26.3251 39.3912 27.9455ZM37.3622 31.9661C37.8566 34.4633 37.927 36.7212 37.5995 38.4864C37.3054 40.0726 36.7138 41.1299 35.982 41.5535C34.4252 42.4547 31.0956 41.2833 27.5048 38.1933C27.0803 37.8273 26.6661 37.4495 26.2626 37.0605C27.6548 35.538 29.046 33.7682 30.4038 31.8025C32.7922 31.5906 35.0485 31.244 37.0947 30.771C37.1933 31.1672 37.2825 31.5657 37.3622 31.9661ZM16.8427 41.3978C15.3216 41.9348 14.1101 41.9503 13.3777 41.528C11.8194 40.6293 11.1716 37.1597 12.0552 32.5057C12.1603 31.9558 12.2805 31.4088 12.4159 30.8656C14.4395 31.3133 16.6795 31.6352 19.0734 31.8293C20.4405 33.7528 21.8719 35.5207 23.3144 37.0688C23.0078 37.3654 22.694 37.6545 22.3732 37.9357C20.4563 39.6111 18.5356 40.7999 16.8427 41.3978ZM9.71667 27.9338C7.30767 27.1103 5.31821 26.0402 3.9546 24.8725C2.72916 23.8232 2.11065 22.7813 2.11065 21.9361C2.11065 20.1371 4.79253 17.8425 9.26567 16.283C9.80853 16.0939 10.3767 15.9154 10.9662 15.7479C11.5845 17.7588 12.3955 19.8613 13.3741 21.9874C12.3827 24.1449 11.5602 26.2811 10.9359 28.3157C10.5264 28.1984 10.1199 28.071 9.71667 27.9338ZM12.1054 11.6731C11.177 6.92821 11.7935 3.34896 13.3453 2.45063C14.998 1.49382 18.6527 2.85802 22.5048 6.27844C22.756 6.50199 23.0032 6.73006 23.2461 6.96256C21.8107 8.50391 20.3925 10.2587 19.0375 12.1708C16.714 12.3861 14.4899 12.732 12.4451 13.1953C12.3191 12.6909 12.2058 12.1834 12.1054 11.6733V11.6731ZM33.4159 16.9353C32.9329 16.101 32.432 15.2773 31.9135 14.4646C33.4898 14.6639 35.0001 14.9285 36.4183 15.2519C35.9926 16.6167 35.4619 18.0434 34.8372 19.5062C34.3806 18.6399 33.9067 17.7827 33.4159 16.9353ZM24.7255 8.47091C25.6989 9.52556 26.6738 10.7029 27.6328 11.9805C25.6875 11.8886 23.739 11.8882 21.7937 11.9793C22.7536 10.7136 23.7368 9.53772 24.7255 8.47091ZM15.9793 16.9498C15.4946 17.7904 15.0296 18.6422 14.5846 19.5045C13.9702 18.0469 13.4443 16.6136 13.0149 15.2295C14.4245 14.9142 15.9276 14.6564 17.4939 14.4607C16.9696 15.2784 16.4646 16.1082 15.9793 16.9496V16.9498ZM17.5388 29.5616C15.9207 29.3809 14.3949 29.1364 12.9858 28.8296C13.4219 27.4208 13.9594 25.9571 14.5872 24.4682C15.0339 25.3311 15.5008 26.1835 15.9876 27.0244C16.4882 27.889 17.0066 28.7358 17.5388 29.5616ZM24.7838 35.5498C23.7833 34.4707 22.7856 33.2767 21.8113 31.9926C22.7573 32.0296 23.7216 32.0485 24.7018 32.0485C25.7087 32.0485 26.7041 32.026 27.6839 31.9823C26.7219 33.2896 25.7506 34.4853 24.7838 35.5498ZM34.8571 24.3922C35.5175 25.8974 36.074 27.3535 36.5159 28.7381C35.0836 29.065 33.5371 29.3283 31.9075 29.5238C32.4297 28.696 32.9353 27.8579 33.4242 27.01C33.9212 26.1481 34.3989 25.2753 34.8571 24.3922ZM31.5961 25.9555C30.8477 27.2555 30.0573 28.5308 29.226 29.7795C27.7203 29.8861 26.2113 29.9391 24.7018 29.9383C23.1643 29.9383 21.6688 29.8904 20.2288 29.797C19.3759 28.5513 18.5704 27.2737 17.814 25.9671H17.8142C17.0614 24.6674 16.3583 23.3395 15.7063 21.9864C16.3566 20.633 17.0576 19.3046 17.8078 18.0039L17.8076 18.0041C18.5576 16.703 19.3567 15.4309 20.2031 14.1905C21.6723 14.0794 23.1789 14.0215 24.7016 14.0215H24.7018C26.2313 14.0215 27.7399 14.0799 29.2087 14.1919C30.0466 15.4304 30.8406 16.6981 31.5891 17.9927C32.3418 19.2905 33.0521 20.6125 33.7189 21.9565C33.059 23.3143 32.3509 24.6481 31.5961 25.9555ZM35.9497 2.38772C37.604 3.34182 38.2474 7.18931 37.208 12.2348C37.1416 12.5567 37.0671 12.8846 36.986 13.2171C34.9362 12.7439 32.7105 12.3921 30.3803 12.1735C29.0228 10.2404 27.6162 8.48288 26.2041 6.9614C26.5742 6.60468 26.9531 6.2572 27.3404 5.9193C30.9878 2.74532 34.3966 1.49209 35.9497 2.38772ZM24.7018 17.5245C27.1382 17.5245 29.1133 19.4997 29.1133 21.9361C29.1133 24.3725 27.1382 26.3476 24.7018 26.3476C22.2654 26.3476 20.2902 24.3725 20.2902 21.9361C20.2902 19.4997 22.2654 17.5245 24.7018 17.5245Z" fill="#00D8FF"/>
</g>
<defs>
<clipPath id="clip0_125_195">
<rect width="49.4035" height="44" fill="white"/>
</clipPath>
</defs>
</svg>
