<svg width="287" height="89" viewBox="0 0 287 89" fill="none" xmlns="http://www.w3.org/2000/svg">
<path d="M90.6 51L95.784 34.2H99.336L104.52 51H102.432L101.136 46.752H93.984L92.688 51H90.6ZM94.488 44.928H100.608L97.728 35.424H97.392L94.488 44.928ZM109.005 55.8V54.12H115.725C116.189 54.12 116.421 53.88 116.421 53.4V49.128H116.085C115.925 49.464 115.677 49.8 115.341 50.136C115.021 50.456 114.597 50.72 114.069 50.928C113.541 51.12 112.877 51.216 112.077 51.216C111.229 51.216 110.445 51.032 109.725 50.664C109.021 50.296 108.461 49.752 108.045 49.032C107.645 48.312 107.445 47.432 107.445 46.392V39.264H109.341V46.248C109.341 47.4 109.629 48.24 110.205 48.768C110.797 49.296 111.589 49.56 112.581 49.56C113.701 49.56 114.621 49.192 115.341 48.456C116.061 47.72 116.421 46.624 116.421 45.168V39.264H118.317V53.736C118.317 54.376 118.133 54.88 117.765 55.248C117.413 55.616 116.893 55.8 116.205 55.8H109.005ZM128.188 51.336C127.004 51.336 125.956 51.088 125.044 50.592C124.148 50.096 123.444 49.4 122.932 48.504C122.436 47.592 122.188 46.52 122.188 45.288V44.976C122.188 43.76 122.436 42.696 122.932 41.784C123.444 40.872 124.148 40.168 125.044 39.672C125.956 39.176 127.004 38.928 128.188 38.928C129.372 38.928 130.412 39.176 131.308 39.672C132.22 40.168 132.924 40.872 133.42 41.784C133.932 42.696 134.188 43.76 134.188 44.976V45.288C134.188 46.52 133.932 47.592 133.42 48.504C132.924 49.4 132.22 50.096 131.308 50.592C130.412 51.088 129.372 51.336 128.188 51.336ZM128.188 49.632C129.436 49.632 130.428 49.24 131.164 48.456C131.916 47.656 132.292 46.584 132.292 45.24V45.024C132.292 43.68 131.916 42.616 131.164 41.832C130.428 41.032 129.436 40.632 128.188 40.632C126.956 40.632 125.964 41.032 125.212 41.832C124.46 42.616 124.084 43.68 124.084 45.024V45.24C124.084 46.584 124.46 47.656 125.212 48.456C125.964 49.24 126.956 49.632 128.188 49.632ZM144.104 51.336C142.104 51.336 140.504 50.76 139.304 49.608C138.12 48.44 137.528 46.744 137.528 44.52V40.68C137.528 38.456 138.12 36.768 139.304 35.616C140.504 34.448 142.104 33.864 144.104 33.864C146.12 33.864 147.72 34.448 148.904 35.616C150.104 36.768 150.704 38.456 150.704 40.68V44.52C150.704 46.744 150.104 48.44 148.904 49.608C147.72 50.76 146.12 51.336 144.104 51.336ZM144.104 49.536C145.56 49.536 146.688 49.104 147.488 48.24C148.288 47.36 148.688 46.144 148.688 44.592V40.608C148.688 39.056 148.288 37.848 147.488 36.984C146.688 36.104 145.56 35.664 144.104 35.664C142.664 35.664 141.544 36.104 140.744 36.984C139.944 37.848 139.544 39.056 139.544 40.608V44.592C139.544 46.144 139.944 47.36 140.744 48.24C141.544 49.104 142.664 49.536 144.104 49.536ZM154.615 51V34.2H156.511V51H154.615ZM165.466 51.216C164.618 51.216 163.834 51.032 163.114 50.664C162.41 50.296 161.85 49.752 161.434 49.032C161.034 48.296 160.834 47.408 160.834 46.368V39.264H162.73V46.224C162.73 47.392 163.018 48.24 163.594 48.768C164.186 49.296 164.978 49.56 165.97 49.56C167.09 49.56 168.01 49.192 168.73 48.456C169.45 47.72 169.81 46.624 169.81 45.168V39.264H171.706V51H169.858V49.008H169.522C169.266 49.568 168.826 50.08 168.202 50.544C167.578 50.992 166.666 51.216 165.466 51.216ZM177.785 51L175.433 39.264H177.353L179.297 49.728H179.633L182.201 39.264H185.345L187.913 49.728H188.249L190.193 39.264H192.113L189.761 51H186.521L183.929 40.536H183.617L181.025 51H177.785ZM199.265 51.336C198.449 51.336 197.705 51.192 197.033 50.904C196.361 50.616 195.833 50.2 195.449 49.656C195.065 49.112 194.873 48.448 194.873 47.664C194.873 46.864 195.065 46.208 195.449 45.696C195.833 45.168 196.361 44.776 197.033 44.52C197.705 44.248 198.457 44.112 199.289 44.112H203.249V43.248C203.249 42.416 203.001 41.76 202.505 41.28C202.025 40.8 201.305 40.56 200.345 40.56C199.401 40.56 198.665 40.792 198.137 41.256C197.609 41.704 197.249 42.312 197.057 43.08L195.281 42.504C195.473 41.848 195.777 41.256 196.193 40.728C196.609 40.184 197.161 39.752 197.849 39.432C198.553 39.096 199.393 38.928 200.369 38.928C201.873 38.928 203.041 39.32 203.873 40.104C204.705 40.872 205.121 41.96 205.121 43.368V48.672C205.121 49.152 205.345 49.392 205.793 49.392H206.873V51H205.217C204.689 51 204.265 50.856 203.945 50.568C203.625 50.264 203.465 49.864 203.465 49.368V49.248H203.177C203.001 49.552 202.761 49.872 202.457 50.208C202.169 50.528 201.769 50.792 201.257 51C200.745 51.224 200.081 51.336 199.265 51.336ZM199.481 49.704C200.601 49.704 201.505 49.376 202.193 48.72C202.897 48.048 203.249 47.112 203.249 45.912V45.648H199.361C198.609 45.648 197.985 45.816 197.489 46.152C197.009 46.472 196.769 46.96 196.769 47.616C196.769 48.272 197.017 48.784 197.513 49.152C198.025 49.52 198.681 49.704 199.481 49.704ZM209.805 53.928V52.176H220.989V53.928H209.805ZM225.24 51V34.2H227.256V51H225.24ZM236.379 51.336C234.923 51.336 233.691 51 232.683 50.328C231.691 49.656 231.091 48.592 230.883 47.136L232.683 46.728C232.811 47.496 233.051 48.104 233.403 48.552C233.755 48.984 234.187 49.296 234.699 49.488C235.227 49.664 235.787 49.752 236.379 49.752C237.259 49.752 237.955 49.576 238.467 49.224C238.979 48.872 239.235 48.4 239.235 47.808C239.235 47.2 238.987 46.776 238.491 46.536C238.011 46.28 237.347 46.072 236.499 45.912L235.515 45.744C234.763 45.616 234.075 45.416 233.451 45.144C232.827 44.872 232.331 44.504 231.963 44.04C231.595 43.576 231.411 42.992 231.411 42.288C231.411 41.232 231.819 40.408 232.635 39.816C233.451 39.224 234.531 38.928 235.875 38.928C237.203 38.928 238.275 39.232 239.091 39.84C239.923 40.432 240.459 41.272 240.699 42.36L238.923 42.816C238.779 41.968 238.435 41.376 237.891 41.04C237.347 40.688 236.675 40.512 235.875 40.512C235.075 40.512 234.443 40.664 233.979 40.968C233.515 41.256 233.283 41.688 233.283 42.264C233.283 42.824 233.499 43.24 233.931 43.512C234.379 43.768 234.971 43.96 235.707 44.088L236.691 44.256C237.523 44.4 238.267 44.6 238.923 44.856C239.595 45.096 240.123 45.448 240.507 45.912C240.907 46.376 241.107 46.984 241.107 47.736C241.107 48.888 240.675 49.776 239.811 50.4C238.963 51.024 237.819 51.336 236.379 51.336ZM244.788 51V39.264H246.636V40.704H246.972C247.18 40.192 247.5 39.816 247.932 39.576C248.364 39.336 248.932 39.216 249.636 39.216H251.028V40.944H249.516C248.668 40.944 247.98 41.184 247.452 41.664C246.94 42.128 246.684 42.856 246.684 43.848V51H244.788ZM257.516 51.336C256.7 51.336 255.956 51.192 255.284 50.904C254.612 50.616 254.084 50.2 253.7 49.656C253.316 49.112 253.124 48.448 253.124 47.664C253.124 46.864 253.316 46.208 253.7 45.696C254.084 45.168 254.612 44.776 255.284 44.52C255.956 44.248 256.708 44.112 257.54 44.112H261.5V43.248C261.5 42.416 261.252 41.76 260.756 41.28C260.276 40.8 259.556 40.56 258.596 40.56C257.652 40.56 256.916 40.792 256.388 41.256C255.86 41.704 255.5 42.312 255.308 43.08L253.532 42.504C253.724 41.848 254.028 41.256 254.444 40.728C254.86 40.184 255.412 39.752 256.1 39.432C256.804 39.096 257.644 38.928 258.62 38.928C260.124 38.928 261.292 39.32 262.124 40.104C262.956 40.872 263.372 41.96 263.372 43.368V48.672C263.372 49.152 263.596 49.392 264.044 49.392H265.124V51H263.468C262.94 51 262.516 50.856 262.196 50.568C261.876 50.264 261.716 49.864 261.716 49.368V49.248H261.428C261.252 49.552 261.012 49.872 260.708 50.208C260.42 50.528 260.02 50.792 259.508 51C258.996 51.224 258.332 51.336 257.516 51.336ZM257.732 49.704C258.852 49.704 259.756 49.376 260.444 48.72C261.148 48.048 261.5 47.112 261.5 45.912V45.648H257.612C256.86 45.648 256.236 45.816 255.74 46.152C255.26 46.472 255.02 46.96 255.02 47.616C255.02 48.272 255.268 48.784 255.764 49.152C256.276 49.52 256.932 49.704 257.732 49.704ZM273.249 51.336C272.065 51.336 271.025 51.088 270.129 50.592C269.233 50.08 268.537 49.368 268.041 48.456C267.545 47.544 267.297 46.488 267.297 45.288V45C267.297 43.784 267.545 42.72 268.041 41.808C268.537 40.896 269.225 40.192 270.105 39.696C270.985 39.184 271.993 38.928 273.129 38.928C274.233 38.928 275.209 39.168 276.057 39.648C276.905 40.112 277.569 40.784 278.049 41.664C278.529 42.544 278.769 43.576 278.769 44.76V45.624H269.193C269.241 46.888 269.649 47.88 270.417 48.6C271.185 49.304 272.145 49.656 273.297 49.656C274.305 49.656 275.081 49.424 275.625 48.96C276.169 48.496 276.585 47.944 276.873 47.304L278.505 48.096C278.265 48.592 277.929 49.088 277.497 49.584C277.081 50.08 276.529 50.496 275.841 50.832C275.169 51.168 274.305 51.336 273.249 51.336ZM269.217 44.064H276.849C276.785 42.976 276.409 42.128 275.721 41.52C275.049 40.912 274.185 40.608 273.129 40.608C272.057 40.608 271.177 40.912 270.489 41.52C269.801 42.128 269.377 42.976 269.217 44.064ZM282.556 51V34.2H284.452V51H282.556Z" fill="white"/>
<path d="M39.7017 6.43921C64.0401 6.43921 70.8629 60.2929 70.8629 60.2929C70.8629 60.2929 20.7098 81.3241 8.54061 60.2929C-3.62857 39.2617 15.3634 6.43921 39.7017 6.43921Z" fill="#D7AA26" fill-opacity="0.49"/>
<g filter="url(#filter0_d_131_421)">
<path d="M60.5094 72.0893C40.0963 85.2973 5.08379 43.732 5.08379 43.732C5.08379 43.732 35.7097 -1.16351 57.3547 9.9107C78.9997 20.9849 80.9224 58.8813 60.5094 72.0893Z" fill="#C5C4DE" fill-opacity="0.73" shape-rendering="crispEdges"/>
</g>
<path d="M39.7017 6.43921C64.0401 6.43921 70.8629 60.2929 70.8629 60.2929C70.8629 60.2929 20.7098 81.3241 8.54061 60.2929C-3.62857 39.2617 15.3634 6.43921 39.7017 6.43921Z" fill="#D7AA26" fill-opacity="0.49"/>
<g filter="url(#filter1_d_131_421)">
<path d="M60.5094 72.0893C40.0963 85.2973 5.08379 43.732 5.08379 43.732C5.08379 43.732 35.7097 -1.16351 57.3547 9.9107C78.9997 20.9849 80.9224 58.8813 60.5094 72.0893Z" fill="#C5C4DE" fill-opacity="0.73" shape-rendering="crispEdges"/>
</g>
<path d="M39.7017 6.43921C64.0401 6.43921 70.8629 60.2929 70.8629 60.2929C70.8629 60.2929 20.7098 81.3241 8.54061 60.2929C-3.62857 39.2617 15.3634 6.43921 39.7017 6.43921Z" fill="#D7AA26" fill-opacity="0.49"/>
<g filter="url(#filter2_d_131_421)">
<path d="M60.5094 72.0893C40.0963 85.2973 5.08379 43.732 5.08379 43.732C5.08379 43.732 35.7097 -1.16351 57.3547 9.9107C78.9997 20.9849 80.9224 58.8813 60.5094 72.0893Z" fill="#C5C4DE" fill-opacity="0.73" shape-rendering="crispEdges"/>
</g>
<path d="M39.7017 6.43921C64.0401 6.43921 70.8629 60.2929 70.8629 60.2929C70.8629 60.2929 20.7098 81.3241 8.54061 60.2929C-3.62857 39.2617 15.3634 6.43921 39.7017 6.43921Z" fill="#D7AA26" fill-opacity="0.49"/>
<g filter="url(#filter3_d_131_421)">
<path d="M60.5094 72.0893C40.0963 85.2973 5.08379 43.732 5.08379 43.732C5.08379 43.732 35.7097 -1.16351 57.3547 9.9107C78.9997 20.9849 80.9224 58.8813 60.5094 72.0893Z" fill="#C5C4DE" fill-opacity="0.73" shape-rendering="crispEdges"/>
</g>
<path d="M23.9 53L33.656 27.8H37.616L47.3 53H43.16L37.4 37.808C37.328 37.64 37.184 37.232 36.968 36.584C36.776 35.936 36.548 35.216 36.284 34.424C36.02 33.632 35.78 32.912 35.564 32.264C35.348 31.592 35.204 31.16 35.132 30.968L35.96 30.932C35.816 31.34 35.636 31.856 35.42 32.48C35.228 33.104 35.012 33.764 34.772 34.46C34.556 35.156 34.34 35.816 34.124 36.44C33.908 37.04 33.728 37.544 33.584 37.952L27.86 53H23.9ZM28.22 46.736L29.66 42.992H41.108L42.764 46.736H28.22ZM51.519 53V49.4H55.587V31.4H51.519V27.8H63.543V31.4H59.475V49.4H63.543V53H51.519Z" fill="#131337"/>
<defs>
<filter id="filter0_d_131_421" x="1.0838" y="8.15369" width="77.6774" height="74.5277" filterUnits="userSpaceOnUse" color-interpolation-filters="sRGB">
<feFlood flood-opacity="0" result="BackgroundImageFix"/>
<feColorMatrix in="SourceAlpha" type="matrix" values="0 0 0 0 0 0 0 0 0 0 0 0 0 0 0 0 0 0 127 0" result="hardAlpha"/>
<feOffset dy="4"/>
<feGaussianBlur stdDeviation="2"/>
<feComposite in2="hardAlpha" operator="out"/>
<feColorMatrix type="matrix" values="0 0 0 0 0 0 0 0 0 0 0 0 0 0 0 0 0 0 0.25 0"/>
<feBlend mode="normal" in2="BackgroundImageFix" result="effect1_dropShadow_131_421"/>
<feBlend mode="normal" in="SourceGraphic" in2="effect1_dropShadow_131_421" result="shape"/>
</filter>
<filter id="filter1_d_131_421" x="1.0838" y="8.15369" width="77.6774" height="74.5277" filterUnits="userSpaceOnUse" color-interpolation-filters="sRGB">
<feFlood flood-opacity="0" result="BackgroundImageFix"/>
<feColorMatrix in="SourceAlpha" type="matrix" values="0 0 0 0 0 0 0 0 0 0 0 0 0 0 0 0 0 0 127 0" result="hardAlpha"/>
<feOffset dy="4"/>
<feGaussianBlur stdDeviation="2"/>
<feComposite in2="hardAlpha" operator="out"/>
<feColorMatrix type="matrix" values="0 0 0 0 0 0 0 0 0 0 0 0 0 0 0 0 0 0 0.25 0"/>
<feBlend mode="normal" in2="BackgroundImageFix" result="effect1_dropShadow_131_421"/>
<feBlend mode="normal" in="SourceGraphic" in2="effect1_dropShadow_131_421" result="shape"/>
</filter>
<filter id="filter2_d_131_421" x="1.0838" y="8.15369" width="77.6774" height="74.5277" filterUnits="userSpaceOnUse" color-interpolation-filters="sRGB">
<feFlood flood-opacity="0" result="BackgroundImageFix"/>
<feColorMatrix in="SourceAlpha" type="matrix" values="0 0 0 0 0 0 0 0 0 0 0 0 0 0 0 0 0 0 127 0" result="hardAlpha"/>
<feOffset dy="4"/>
<feGaussianBlur stdDeviation="2"/>
<feComposite in2="hardAlpha" operator="out"/>
<feColorMatrix type="matrix" values="0 0 0 0 0 0 0 0 0 0 0 0 0 0 0 0 0 0 0.25 0"/>
<feBlend mode="normal" in2="BackgroundImageFix" result="effect1_dropShadow_131_421"/>
<feBlend mode="normal" in="SourceGraphic" in2="effect1_dropShadow_131_421" result="shape"/>
</filter>
<filter id="filter3_d_131_421" x="1.0838" y="8.15369" width="77.6774" height="74.5277" filterUnits="userSpaceOnUse" color-interpolation-filters="sRGB">
<feFlood flood-opacity="0" result="BackgroundImageFix"/>
<feColorMatrix in="SourceAlpha" type="matrix" values="0 0 0 0 0 0 0 0 0 0 0 0 0 0 0 0 0 0 127 0" result="hardAlpha"/>
<feOffset dy="4"/>
<feGaussianBlur stdDeviation="2"/>
<feComposite in2="hardAlpha" operator="out"/>
<feColorMatrix type="matrix" values="0 0 0 0 0 0 0 0 0 0 0 0 0 0 0 0 0 0 0.25 0"/>
<feBlend mode="normal" in2="BackgroundImageFix" result="effect1_dropShadow_131_421"/>
<feBlend mode="normal" in="SourceGraphic" in2="effect1_dropShadow_131_421" result="shape"/>
</filter>
</defs>
</svg>
